<svg xmlns="http://www.w3.org/2000/svg" xmlns:xlink="http://www.w3.org/1999/xlink" width="1080" height="1080" style="width:100%;height:100%;transform:translate3d(0,0,0);content-visibility:visible"><defs><mask id="cn" mask-type="alpha"><use xlink:href="#a"/></mask><mask id="cl" mask-type="alpha"><g filter="url(#b)"><use xlink:href="#c"/></g></mask><mask id="ck" mask-type="alpha"><use xlink:href="#d"/></mask><mask id="cj" mask-type="alpha"><use xlink:href="#e"/></mask><mask id="ch" mask-type="alpha"><g filter="url(#f)"><use xlink:href="#g"/></g></mask><mask id="cf" mask-type="alpha"><use xlink:href="#h"/></mask><mask id="cd" mask-type="alpha"><g filter="url(#i)"><use xlink:href="#j"/></g></mask><mask id="cc" mask-type="alpha"><use xlink:href="#k"/></mask><mask id="cb" mask-type="alpha"><use xlink:href="#l"/></mask><mask id="bZ" mask-type="alpha"><g filter="url(#m)"><use xlink:href="#n"/></g></mask><mask id="bX" mask-type="alpha"><use xlink:href="#o"/></mask><mask id="bV" mask-type="alpha"><g filter="url(#p)"><use xlink:href="#q"/></g></mask><mask id="bU" mask-type="alpha"><use xlink:href="#r"/></mask><mask id="bT" mask-type="alpha"><use xlink:href="#s"/></mask><mask id="bR" mask-type="alpha"><g filter="url(#t)"><use xlink:href="#u"/></g></mask><mask id="bH" mask-type="alpha"><use xlink:href="#v"/></mask><mask id="bG" mask-type="alpha"><use xlink:href="#w"/></mask><mask id="bE" mask-type="alpha"><use xlink:href="#x"/></mask><mask id="bD" mask-type="alpha"><use xlink:href="#y"/></mask><mask id="bB" mask-type="alpha"><use xlink:href="#z"/></mask><mask id="bA" mask-type="alpha"><use xlink:href="#A"/></mask><mask id="by" mask-type="alpha"><use xlink:href="#B"/></mask><mask id="bx" mask-type="alpha"><use xlink:href="#C"/></mask><mask id="bu" mask-type="alpha"><use xlink:href="#D"/></mask><mask id="bv" mask-type="alpha"><use xlink:href="#E"/></mask><mask id="br" mask-type="alpha"><use xlink:href="#F"/></mask><mask id="bs" mask-type="alpha"><use xlink:href="#G"/></mask><mask id="bo" mask-type="alpha"><use xlink:href="#H"/></mask><mask id="bp" mask-type="alpha"><use xlink:href="#I"/></mask><mask id="bl" mask-type="alpha"><use xlink:href="#J"/></mask><mask id="bm" mask-type="alpha"><use xlink:href="#K"/></mask><mask id="bh" mask-type="alpha"><use xlink:href="#L"/></mask><mask id="bd" mask-type="alpha"><use xlink:href="#M"/></mask><mask id="aZ" mask-type="alpha"><use xlink:href="#N"/></mask><mask id="aX" mask-type="alpha"><use xlink:href="#O"/></mask><mask id="aW" mask-type="alpha"><use xlink:href="#P"/></mask><mask id="aV" mask-type="alpha"><use xlink:href="#Q"/></mask><mask id="aT" mask-type="alpha"><use xlink:href="#R"/></mask><mask id="aS" mask-type="alpha"><use xlink:href="#S"/></mask><mask id="aR" mask-type="alpha"><use xlink:href="#T"/></mask><mask id="aP" mask-type="alpha"><use xlink:href="#U"/></mask><mask id="aO" mask-type="alpha"><use xlink:href="#V"/></mask><mask id="aN" mask-type="alpha"><use xlink:href="#W"/></mask><mask id="aL" mask-type="alpha"><use xlink:href="#X"/></mask><mask id="aK" mask-type="alpha"><use xlink:href="#Y"/></mask><mask id="aJ" mask-type="alpha"><use xlink:href="#Z"/></mask><mask id="aG" mask-type="alpha"><use xlink:href="#aa"/></mask><mask id="aF" mask-type="alpha"><use xlink:href="#ab"/></mask><mask id="aE" mask-type="alpha"><use xlink:href="#ac"/></mask><mask id="aC" mask-type="alpha"><use xlink:href="#ad"/></mask><mask id="az" mask-type="alpha"><use xlink:href="#ae"/></mask><mask id="ay" mask-type="alpha"><use xlink:href="#af"/></mask><mask id="ax" mask-type="alpha"><use xlink:href="#ag"/></mask><mask id="av" mask-type="alpha"><use xlink:href="#ah"/></mask><mask id="as" mask-type="alpha"><use xlink:href="#ai"/></mask><mask id="ar" mask-type="alpha"><use xlink:href="#aj"/></mask><mask id="aq" mask-type="alpha"><use xlink:href="#ak"/></mask><mask id="ao" mask-type="alpha"><use xlink:href="#al"/></mask><clipPath id="am"><path d="M0 0h1080v1080H0z"/></clipPath><clipPath id="cg"><path d="M0 0h1920v1079H0z"/></clipPath><clipPath id="cm"><path d="M0 0h1920v1079H0z"/></clipPath><clipPath id="ci"><path d="M0 0h1920v1079H0z"/></clipPath><clipPath id="bY"><path d="M0 0h1920v1079H0z"/></clipPath><clipPath id="ce"><path d="M0 0h1920v1079H0z"/></clipPath><clipPath id="ca"><path d="M0 0h1920v1079H0z"/></clipPath><clipPath id="bQ"><path d="M0 0h1920v1079H0z"/></clipPath><clipPath id="bW"><path d="M0 0h1920v1079H0z"/></clipPath><clipPath id="bS"><path d="M0 0h1920v1079H0z"/></clipPath><clipPath id="bP"><path d="M0 0h1920v1079H0z"/></clipPath><clipPath id="bO"><path d="M0 0h1920v1079H0z"/></clipPath><clipPath id="bN"><path d="M0 0h1920v1079H0z"/></clipPath><clipPath id="bM"><path d="M0 0h1920v1079H0z"/></clipPath><clipPath id="bL"><path d="M0 0h1920v1079H0z"/></clipPath><clipPath id="bK"><path d="M0 0h1920v1079H0z"/></clipPath><clipPath id="bJ"><path d="M0 0h1920v1079H0z"/></clipPath><clipPath id="bI"><path d="M0 0h1920v1079H0z"/></clipPath><clipPath id="bF"><path d="M0 0h1920v1079H0z"/></clipPath><clipPath id="bC"><path d="M0 0h1920v1079H0z"/></clipPath><clipPath id="bz"><path d="M0 0h1920v1079H0z"/></clipPath><clipPath id="bw"><path d="M0 0h1920v1079H0z"/></clipPath><clipPath id="bt"><path d="M0 0h1920v1079H0z"/></clipPath><clipPath id="bq"><path d="M0 0h1920v1079H0z"/></clipPath><clipPath id="bn"><path d="M0 0h1920v1079H0z"/></clipPath><clipPath id="bk"><path d="M0 0h1920v1079H0z"/></clipPath><clipPath id="bg"><path d="M0 0h1920v1079H0z"/></clipPath><clipPath id="bi"><path d="M0 0h1920v1079H0z"/></clipPath><clipPath id="bc"><path d="M0 0h1920v1079H0z"/></clipPath><clipPath id="be"><path d="M0 0h1920v1079H0z"/></clipPath><clipPath id="aY"><path d="M0 0h1920v1079H0z"/></clipPath><clipPath id="ba"><path d="M0 0h1920v1079H0z"/></clipPath><clipPath id="aU"><path d="M0 0h1920v1079H0z"/></clipPath><clipPath id="aQ"><path d="M0 0h1920v1079H0z"/></clipPath><clipPath id="aM"><path d="M0 0h1920v1079H0z"/></clipPath><clipPath id="aI"><path d="M0 0h1920v1079H0z"/></clipPath><clipPath id="aB"><path d="M0 0h1920v1079H0z"/></clipPath><clipPath id="aH"><path d="M0 0h1920v1079H0z"/></clipPath><clipPath id="aD"><path d="M0 0h1920v1079H0z"/></clipPath><clipPath id="au"><path d="M0 0h1920v1079H0z"/></clipPath><clipPath id="aA"><path d="M0 0h1920v1079H0z"/></clipPath><clipPath id="aw"><path d="M0 0h1920v1079H0z"/></clipPath><clipPath id="an"><path d="M0 0h1920v1079H0z"/></clipPath><clipPath id="at"><path d="M0 0h1920v1079H0z"/></clipPath><clipPath id="ap"><path d="M0 0h1920v1079H0z"/></clipPath><path fill="#DB8D74" d="M521.5 303c-16.5 11-42 12.5-66 13.5s-53.834 22.53-51 52c2.5 26 27.5 43 54.5 43.5 30.012.556 61-2.5 100.5-24s36.5-55.5 23.5-77-45-19-61.5-8z" transform="rotate(-6 6207.043 -8631.536)" style="display:block" id="e"/><path fill="#DB8D74" d="M521.5 303c-16.5 11-42 12.5-66 13.5s-53.834 22.53-51 52c2.5 26 27.5 43 54.5 43.5 30.012.556 61-2.5 100.5-24s36.5-55.5 23.5-77-45-19-61.5-8z" transform="rotate(-10 4091.52 -4911.194)" style="display:block" id="l"/><path fill="#DB8D74" d="M482.763 275.603c-62.54 10.163-70.236 76.625-62.591 127.106 8.645 49.929 23.159 76.255 59.745 71.089 30.143-4.48 46.95-27.825 42.718-65.137-4.113-34.11 2.888-55.598 6.279-76.482 5.387-32.209-15.527-60.714-46.15-56.576z" transform="rotate(35.667 107.154 2195.246)" style="display:block" id="o"/><path fill="#DB8D74" d="M521.5 303c-16.5 11-42 12.5-66 13.5s-53.834 22.53-51 52c2.5 26 27.5 43 54.5 43.5 30.012.556 61-2.5 100.5-24s36.5-55.5 23.5-77-45-19-61.5-8z" transform="translate(975 551.5)" style="display:block" id="s"/><path fill="#FFCBA3" d="M208.585-408.855c-7.835-3.645-36.835-2.645-50.532 21.238-12.377 21.58-5.057 49.093 16.487 61.532 0 0 2.21 1.585 4.192 2.604C165-376.5 201.25-403.25 213.777-407.001c-1.277-.999-5.192-1.854-5.192-1.854z" transform="rotate(.02 -2326156.838 4082455.061)" style="display:block" id="v"/><path fill="#B23232" d="m181.611-391.64 1.47 3.198c1.386 3.013.04 6.561-3.004 7.925-3.045 1.363-6.635.025-8.02-2.989l-1.47-3.198c-1.386-3.014-.041-6.561 3.004-7.925 3.044-1.363 6.635-.026 8.02 2.988z" transform="rotate(.02 -2326156.838 4082455.061)" style="display:block" id="w"/><path fill="#FFCBA3" d="M208.585-408.855c-7.835-3.645-36.835-2.645-50.532 21.238-12.377 21.58-5.057 49.093 16.487 61.532 0 0 2.21 1.585 4.192 2.604C165-376.5 201.25-403.25 213.777-407.001c-1.277-.999-5.192-1.854-5.192-1.854z" transform="rotate(.02 -2327825.603 4084592.54)" style="display:block" id="x"/><path fill="#B23232" d="m182.034-391.592 1.413 3.227c1.332 3.041-.096 6.555-3.19 7.85s-6.682-.122-8.014-3.163l-1.413-3.227c-1.332-3.042.096-6.556 3.19-7.85 3.094-1.295 6.682.121 8.014 3.163z" transform="rotate(.02 -2327825.603 4084592.54)" style="display:block" id="y"/><path fill="#FFCBA3" d="M208.585-408.855c-7.835-3.645-36.835-2.645-50.532 21.238-12.377 21.58-5.057 49.093 16.487 61.532 0 0 2.21 1.585 4.192 2.604C165-376.5 201.25-403.25 213.777-407.001c-1.277-.999-5.192-1.854-5.192-1.854z" transform="rotate(1.568 -20927.52 37851.114)" style="display:block" id="z"/><path fill="#B23232" d="m184.23-391.34 1.119 3.378c1.054 3.184-.808 6.524-4.159 7.46-3.35.936-6.92-.888-7.975-4.072l-1.118-3.378c-1.054-3.185.808-6.524 4.158-7.46 3.35-.936 6.921.887 7.975 4.071z" transform="rotate(1.568 -20927.52 37851.114)" style="display:block" id="A"/><path fill="#FFCBA3" d="M208.585-408.855c-7.835-3.645-36.835-2.645-50.532 21.238-12.377 21.58-5.057 49.093 16.487 61.532 0 0 2.21 1.585 4.192 2.604C165-376.5 201.25-403.25 213.777-407.001c-1.277-.999-5.192-1.854-5.192-1.854z" transform="rotate(1.568 -20927.273 37851.03)" style="display:block" id="B"/><path fill="#B23232" d="m184.225-391.341 1.12 3.378c1.054 3.183-.807 6.524-4.156 7.46-3.35.938-6.921-.885-7.976-4.069l-1.12-3.378c-1.053-3.184.808-6.524 4.157-7.46 3.35-.938 6.921.884 7.975 4.069z" transform="rotate(1.568 -20927.273 37851.03)" style="display:block" id="C"/><path fill="#58CC02" d="M318.202-45.464c15.252 94.999-31.572 144.035-95.655 159.537-84.448 20.428-134.794-43.146-151.05-96.71C16-165.5 158.631-177.933 166.59-174.39a21.642 21.642 0 0 0 13.898 1.277c13.72-3.334 29.364-13.462 52.062-24.71 28.634-14.19 72.547 1.407 71.323 40.679 0 0 5.505 56.717 14.329 111.68zm-15 4c15.252 94.999-16.572 140.035-80.655 155.537-84.448 20.428-144.155-35.09-168.05-85.71C36.399-9.976 31.209-79.308 31.209-79.308c-2.443-42.408 8.57-88.445 47.15-106.222 17.568-8.095 35.66-11.367 49.816-6.28 21.939 7.884 30.456 13.877 38.415 17.42 4.363 1.942 127.788 77.963 136.612 132.926z" transform="rotate(-2.646 13776.4 -22136.3)" style="display:block" id="E"/><path fill="#58CC02" d="M318.202-45.464c15.252 94.999-31.572 144.035-95.655 159.537-84.448 20.428-134.794-43.146-151.05-96.71C16-165.5 158.631-177.933 166.59-174.39a21.642 21.642 0 0 0 13.898 1.277c13.72-3.334 29.364-13.462 52.062-24.71 28.634-14.19 72.547 1.407 71.323 40.679 0 0 5.505 56.717 14.329 111.68zm-15 4c15.252 94.999-16.572 140.035-80.655 155.537-84.448 20.428-144.155-35.09-168.05-85.71C36.399-9.976 31.209-79.308 31.209-79.308c-2.443-42.408 8.57-88.445 47.15-106.222 17.568-8.095 35.66-11.367 49.816-6.28 21.939 7.884 30.456 13.877 38.415 17.42 4.363 1.942 127.788 77.963 136.612 132.926z" transform="rotate(-2.899 12698.107 -20195.181)" style="display:block" id="G"/><path fill="#58CC02" d="M318.202-45.464c15.252 94.999-31.572 144.035-95.655 159.537-84.448 20.428-134.794-43.146-151.05-96.71C16-165.5 158.631-177.933 166.59-174.39a21.642 21.642 0 0 0 13.898 1.277c13.72-3.334 29.364-13.462 52.062-24.71 28.634-14.19 72.547 1.407 71.323 40.679 0 0 5.505 56.717 14.329 111.68zm-15 4c15.252 94.999-16.572 140.035-80.655 155.537-84.448 20.428-144.155-35.09-168.05-85.71C36.399-9.976 31.209-79.308 31.209-79.308c-2.443-42.408 8.57-88.445 47.15-106.222 17.568-8.095 35.66-11.367 49.816-6.28 21.939 7.884 30.456 13.877 38.415 17.42 4.363 1.942 127.788 77.963 136.612 132.926z" transform="rotate(-2.989 12395.394 -19598.074)" style="display:block" id="I"/><path fill="#58CC02" d="M318.202-45.464c15.252 94.999-31.572 144.035-95.655 159.537-84.448 20.428-134.794-43.146-151.05-96.71C16-165.5 158.631-177.933 166.59-174.39a21.642 21.642 0 0 0 13.898 1.277c13.72-3.334 29.364-13.462 52.062-24.71 28.634-14.19 72.547 1.407 71.323 40.679 0 0 5.505 56.717 14.329 111.68zm-15 4c15.252 94.999-16.572 140.035-80.655 155.537-84.448 20.428-144.155-35.09-168.05-85.71C36.399-9.976 31.209-79.308 31.209-79.308c-2.443-42.408 8.57-88.445 47.15-106.222 17.568-8.095 35.66-11.367 49.816-6.28 21.939 7.884 30.456 13.877 38.415 17.42 4.363 1.942 127.788 77.963 136.612 132.926z" transform="rotate(-2.039 17912.823 -28918.62)" style="display:block" id="K"/><path fill="#FFC7B8" d="M552.811-154.957c-14.873-8.982-34.962-11.237-52.179-1.891l-28.256 15.339a51.11 51.11 0 0 0-25.616 34.316l-7.98 37.63C434.57-49.714 440-30 458.986-17.428 477.972-4.856 510.5 12 528.501 43.852c6.897 12.204 42.974 11.603 54.934 7.15l38.691-9.376A38.335 38.335 0 0 0 651.93 8.839l6.319-51.72c-.568-6.318-6.973-19.296-11.519-26.102C621-107.5 590-132.5 552.811-154.957z" transform="rotate(-6.966 5759.877 -7826.362)" style="display:block" id="L"/><path fill="#FFC7B8" d="M552.811-154.957c-14.873-8.982-34.962-11.237-52.179-1.891l-28.256 15.339a51.11 51.11 0 0 0-25.616 34.316l-7.98 37.63C434.57-49.714 440-30 458.986-17.428 477.972-4.856 510.5 12 528.501 43.852c6.897 12.204 42.974 11.603 54.934 7.15l38.691-9.376A38.335 38.335 0 0 0 651.93 8.839l6.319-51.72c-.568-6.318-6.973-19.296-11.519-26.102C621-107.5 590-132.5 552.811-154.957z" transform="rotate(-7.656 5341.323 -7089.907)" style="display:block" id="M"/><path fill="#FFC7B8" d="M552.811-154.957c-14.873-8.982-34.962-11.237-52.179-1.891l-28.256 15.339a51.11 51.11 0 0 0-25.616 34.316l-7.98 37.63C434.57-49.714 440-30 458.986-17.428 477.972-4.856 510.5 12 528.501 43.852c6.897 12.204 42.974 11.603 54.934 7.15l38.691-9.376A38.335 38.335 0 0 0 651.93 8.839l6.319-51.72c-.568-6.318-6.973-19.296-11.519-26.102C621-107.5 590-132.5 552.811-154.957z" transform="rotate(-3.601 10203.61 -15329.759)" style="display:block" id="N"/><path fill="#CC348D" d="M745.232-224.137c-.304-28.44 22.505-51.741 50.945-52.045 28.44-.304 51.741 22.506 52.045 50.946.304 28.44-22.505 51.74-50.945 52.044-28.44.304-51.741-22.505-52.045-50.945z" transform="rotate(-3.225 11773.017 -18195.726)" style="display:block" id="O"/><path fill="#0084C2" d="M732.862-124.382c4.759-25.473 29.266-42.264 54.739-37.505s42.265 29.265 37.506 54.738-29.266 42.265-54.739 37.506-42.265-29.266-37.506-54.739z" transform="rotate(3.225 -9135.546 18467.86)" style="display:block" id="P"/><path fill="#AFD5E0" d="M750.527-172.52c-2.856 6.832 153.036 310.917-59.97 264.614s1.1-278.504 4.916-287.632c3.816-9.128 19.234-11.375 34.437-5.019 15.203 6.356 24.433 18.909 20.617 28.037z" transform="rotate(-6.449 6505.285 -9054.674)" style="display:block" id="Q"/><path fill="#CC348D" d="M745.232-224.137c-.304-28.44 22.505-51.741 50.945-52.045 28.44-.304 51.741 22.506 52.045 50.946.304 28.44-22.505 51.74-50.945 52.044-28.44.304-51.741-22.505-52.045-50.945z" transform="rotate(-4.101 9533.334 -14268.523)" style="display:block" id="R"/><path fill="#0084C2" d="M732.862-124.382c4.759-25.473 29.266-42.264 54.739-37.505s42.265 29.265 37.506 54.738-29.266 42.265-54.739 37.506-42.265-29.266-37.506-54.739z" transform="rotate(4.101 -6897.035 14540.02)" style="display:block" id="S"/><path fill="#AFD5E0" d="M750.527-172.52c-2.856 6.832 153.036 310.917-59.97 264.614s1.1-278.504 4.916-287.632c3.816-9.128 19.234-11.375 34.437-5.019 15.203 6.356 24.433 18.909 20.617 28.037z" transform="rotate(-8.202 5383.169 -7085.987)" style="display:block" id="T"/><path fill="#CC348D" d="M745.232-224.137c-.304-28.44 22.505-51.741 50.945-52.045 28.44-.304 51.741 22.506 52.045 50.946.304 28.44-22.505 51.74-50.945 52.044-28.44.304-51.741-22.505-52.045-50.945z" transform="rotate(-5.989 6934.078 -9712.103)" style="display:block" id="U"/><path fill="#0084C2" d="M732.862-124.382c4.759-25.473 29.266-42.264 54.739-37.505s42.265 29.265 37.506 54.738-29.266 42.265-54.739 37.506-42.265-29.266-37.506-54.739z" transform="rotate(5.989 -4300.438 9982.162)" style="display:block" id="V"/><path fill="#AFD5E0" d="M750.527-172.52c-2.856 6.832 153.036 310.917-59.97 264.614s1.1-278.504 4.916-287.632c3.816-9.128 19.234-11.375 34.437-5.019 15.203 6.356 24.433 18.909 20.617 28.037z" transform="rotate(-11.978 4080.432 -4797.177)" style="display:block" id="W"/><path fill="#CC348D" d="M745.232-224.137c-.304-28.44 22.505-51.741 50.945-52.045 28.44-.304 51.741 22.506 52.045 50.946.304 28.44-22.505 51.74-50.945 52.044-28.44.304-51.741-22.505-52.045-50.945z" transform="rotate(-5.635 7288.784 -10333.741)" style="display:block" id="X"/><path fill="#0084C2" d="M732.862-124.382c4.759-25.473 29.266-42.264 54.739-37.505s42.265 29.265 37.506 54.738-29.266 42.265-54.739 37.506-42.265-29.266-37.506-54.739z" transform="rotate(5.635 -4654.61 10604.089)" style="display:block" id="Y"/><path fill="#AFD5E0" d="M750.527-172.52c-2.856 6.832 153.036 310.917-59.97 264.614s1.1-278.504 4.916-287.632c3.816-9.128 19.234-11.375 34.437-5.019 15.203 6.356 24.433 18.909 20.617 28.037z" transform="rotate(-11.24 4266.144 -5123.668)" style="display:block" id="Z"/><path fill="#FFF" d="M638.033-169.849c-41.207 112.587-110.385 302.331-170.99 469.348-11.827 32.594-21.429 51.144-71.04 55.59-84.82 7.601-163.41 13.29-252.041 16.588-15.917.592-33.228-11.412-36.908-42.619-14.53-123.235-31.678-302.891-47.058-481.524-2.828-32.845 23.041-69.646 70.892-70.091 112.027-1.042 349.193-14.511 455.264-10.36 34.205 1.339 62.292 34.624 51.881 63.068z" transform="rotate(-145 914.887 215.665) scale(.5)" style="display:block" id="aa"/><path fill="#FFF" d="M615.125 597.383S518.546 449.096 506.719 481.69c-11.827 32.594-61.105-131.047-110.716-126.601-84.82 7.601-163.41 13.29-252.041 16.588-15.917.592-33.228-11.412-36.908-42.619-14.53-123.235-31.678-302.891-47.058-481.524-2.828-32.845 23.041-69.646 70.892-70.091 112.027-1.042 349.193-14.511 455.264-10.36 34.205 1.339 62.292 34.624 51.881 63.068C596.826-57.262 923.151 9.427 923.151 9.427s83.359 177.85 82.666 179.759c-.334.919-390.692 408.197-390.692 408.197z" transform="rotate(-145 914.887 215.665) scale(.5)" style="display:block" id="ad"/><path fill="#FFF" d="M412.599 78.212c-6.132 3.04-7.257 9.111-7.45 10.036l-2.078 9.955c-.804 3.852 1.678 7.626 5.543 8.43l7.348 1.528c7.924 1.648 15.683-3.417 17.331-11.313.495-2.371 3.308-16.424 3.308-16.424s-16.193-6.083-24.002-2.212zm-14.702-3.734c3.902 5.915 3.593 9.268 3.279 11.761-.411 3.262-1.961 10.655-1.961 10.655-.863 4.124-4.939 6.767-9.102 5.904l-7.271-1.508c-8.179-1.696-13.434-9.638-11.738-17.74.661-3.158 3.897-16.189 3.897-16.189s19.186 1.492 22.896 7.117z" transform="rotate(-.773 44097.058 -72757.563)" style="display:block" id="ab"/><path fill="#FFF" d="M412.599 78.212c-6.132 3.04-7.257 9.111-7.45 10.036l-2.078 9.955c-.804 3.852 1.678 7.626 5.543 8.43l7.348 1.528c7.924 1.648 15.683-3.417 17.331-11.313.495-2.371 3.308-16.424 3.308-16.424s-16.193-6.083-24.002-2.212zm-14.702-3.734c3.902 5.915 3.593 9.268 3.279 11.761-.411 3.262-1.961 10.655-1.961 10.655-.863 4.124-4.939 6.767-9.102 5.904l-7.271-1.508c-8.179-1.696-13.434-9.638-11.738-17.74.661-3.158 3.897-16.189 3.897-16.189s19.186 1.492 22.896 7.117z" transform="rotate(-.773 44097.058 -72757.563)" style="display:block" id="ac"/><path fill="#FFF" d="M638.033-169.849c-41.207 112.587-110.385 302.331-170.99 469.348-11.827 32.594-21.429 51.144-71.04 55.59-84.82 7.601-163.41 13.29-252.041 16.588-15.917.592-33.228-11.412-36.908-42.619-14.53-123.235-31.678-302.891-47.058-481.524-2.828-32.845 23.041-69.646 70.892-70.091 112.027-1.042 349.193-14.511 455.264-10.36 34.205 1.339 62.292 34.624 51.881 63.068z" transform="rotate(-145 914.887 215.665) scale(.5)" style="display:block" id="ae"/><path fill="#FFF" d="M615.125 597.383S518.546 449.096 506.719 481.69c-11.827 32.594-61.105-131.047-110.716-126.601-84.82 7.601-163.41 13.29-252.041 16.588-15.917.592-33.228-11.412-36.908-42.619-14.53-123.235-31.678-302.891-47.058-481.524-2.828-32.845 23.041-69.646 70.892-70.091 112.027-1.042 349.193-14.511 455.264-10.36 34.205 1.339 62.292 34.624 51.881 63.068C596.826-57.262 923.151 9.427 923.151 9.427s83.359 177.85 82.666 179.759c-.334.919-390.692 408.197-390.692 408.197z" transform="rotate(-145 914.887 215.665) scale(.5)" style="display:block" id="ah"/><path fill="#FFF" d="M412.599 78.212c-6.132 3.04-7.257 9.111-7.45 10.036l-2.078 9.955c-.804 3.852 1.678 7.626 5.543 8.43l7.348 1.528c7.924 1.648 15.683-3.417 17.331-11.313.495-2.371 3.308-16.424 3.308-16.424s-16.193-6.083-24.002-2.212zm-14.702-3.734c3.902 5.915 3.593 9.268 3.279 11.761-.411 3.262-1.961 10.655-1.961 10.655-.863 4.124-4.939 6.767-9.102 5.904l-7.271-1.508c-8.179-1.696-13.434-9.638-11.738-17.74.661-3.158 3.897-16.189 3.897-16.189s19.186 1.492 22.896 7.117z" transform="rotate(-4.702 7863.334 -11520.215)" style="display:block" id="af"/><path fill="#FFF" d="M412.599 78.212c-6.132 3.04-7.257 9.111-7.45 10.036l-2.078 9.955c-.804 3.852 1.678 7.626 5.543 8.43l7.348 1.528c7.924 1.648 15.683-3.417 17.331-11.313.495-2.371 3.308-16.424 3.308-16.424s-16.193-6.083-24.002-2.212zm-14.702-3.734c3.902 5.915 3.593 9.268 3.279 11.761-.411 3.262-1.961 10.655-1.961 10.655-.863 4.124-4.939 6.767-9.102 5.904l-7.271-1.508c-8.179-1.696-13.434-9.638-11.738-17.74.661-3.158 3.897-16.189 3.897-16.189s19.186 1.492 22.896 7.117z" transform="rotate(-4.702 7863.334 -11520.215)" style="display:block" id="ag"/><path fill="#FFF" d="M638.033-169.849c-41.207 112.587-110.385 302.331-170.99 469.348-11.827 32.594-21.429 51.144-71.04 55.59-84.82 7.601-163.41 13.29-252.041 16.588-15.917.592-33.228-11.412-36.908-42.619-14.53-123.235-31.678-302.891-47.058-481.524-2.828-32.845 23.041-69.646 70.892-70.091 112.027-1.042 349.193-14.511 455.264-10.36 34.205 1.339 62.292 34.624 51.881 63.068z" transform="rotate(-145 914.887 215.665) scale(.5)" style="display:block" id="ai"/><path fill="#FFF" d="M615.125 597.383S518.546 449.096 506.719 481.69c-11.827 32.594-61.105-131.047-110.716-126.601-84.82 7.601-163.41 13.29-252.041 16.588-15.917.592-33.228-11.412-36.908-42.619-14.53-123.235-31.678-302.891-47.058-481.524-2.828-32.845 23.041-69.646 70.892-70.091 112.027-1.042 349.193-14.511 455.264-10.36 34.205 1.339 62.292 34.624 51.881 63.068C596.826-57.262 923.151 9.427 923.151 9.427s83.359 177.85 82.666 179.759c-.334.919-390.692 408.197-390.692 408.197z" transform="rotate(-145 914.887 215.665) scale(.5)" style="display:block" id="al"/><path fill="#FFF" d="M412.599 78.212c-6.132 3.04-7.257 9.111-7.45 10.036l-2.078 9.955c-.804 3.852 1.678 7.626 5.543 8.43l7.348 1.528c7.924 1.648 15.683-3.417 17.331-11.313.495-2.371 3.308-16.424 3.308-16.424s-16.193-6.083-24.002-2.212zm-14.702-3.734c3.902 5.915 3.593 9.268 3.279 11.761-.411 3.262-1.961 10.655-1.961 10.655-.863 4.124-4.939 6.767-9.102 5.904l-7.271-1.508c-8.179-1.696-13.434-9.638-11.738-17.74.661-3.158 3.897-16.189 3.897-16.189s19.186 1.492 22.896 7.117z" transform="rotate(-5 7434.471 -10806.925)" style="display:block" id="aj"/><path fill="#FFF" d="M412.599 78.212c-6.132 3.04-7.257 9.111-7.45 10.036l-2.078 9.955c-.804 3.852 1.678 7.626 5.543 8.43l7.348 1.528c7.924 1.648 15.683-3.417 17.331-11.313.495-2.371 3.308-16.424 3.308-16.424s-16.193-6.083-24.002-2.212zm-14.702-3.734c3.902 5.915 3.593 9.268 3.279 11.761-.411 3.262-1.961 10.655-1.961 10.655-.863 4.124-4.939 6.767-9.102 5.904l-7.271-1.508c-8.179-1.696-13.434-9.638-11.738-17.74.661-3.158 3.897-16.189 3.897-16.189s19.186 1.492 22.896 7.117z" transform="rotate(-5 7434.471 -10806.925)" style="display:block" id="ak"/><filter id="b" filterUnits="objectBoundingBox" x="0%" y="0%" width="100%" height="100%"><feComponentTransfer in="SourceGraphic"><feFuncA type="table" tableValues="1.0 0.0"/></feComponentTransfer></filter><filter id="f" filterUnits="objectBoundingBox" x="0%" y="0%" width="100%" height="100%"><feComponentTransfer in="SourceGraphic"><feFuncA type="table" tableValues="1.0 0.0"/></feComponentTransfer></filter><filter id="i" filterUnits="objectBoundingBox" x="0%" y="0%" width="100%" height="100%"><feComponentTransfer in="SourceGraphic"><feFuncA type="table" tableValues="1.0 0.0"/></feComponentTransfer></filter><filter id="m" filterUnits="objectBoundingBox" x="0%" y="0%" width="100%" height="100%"><feComponentTransfer in="SourceGraphic"><feFuncA type="table" tableValues="1.0 0.0"/></feComponentTransfer></filter><filter id="p" filterUnits="objectBoundingBox" x="0%" y="0%" width="100%" height="100%"><feComponentTransfer in="SourceGraphic"><feFuncA type="table" tableValues="1.0 0.0"/></feComponentTransfer></filter><filter id="t" filterUnits="objectBoundingBox" x="0%" y="0%" width="100%" height="100%"><feComponentTransfer in="SourceGraphic"><feFuncA type="table" tableValues="1.0 0.0"/></feComponentTransfer></filter><g style="display:block" id="g"><path fill="#FFF" d="M638.033-169.849c-41.207 112.587 498.002-704.754 437.397-537.737-11.827 32.594-744.654 15.526-794.265 19.972-84.82 7.601-1090.514 743.028-1179.146 746.325-15.917.593 94.439 209.272 90.759 178.065-14.53-123.236 483.127-306.895 467.747-485.528-1.182-13.726 402.119 68.144 410.47 55.978 11.633-16.946 32.039-29.524 59.893-29.783 112.027-1.042 349.193-14.511 455.264-10.36 34.205 1.339 62.291 34.624 51.881 63.068z" transform="rotate(-145 914.887 215.665) scale(.5)"/><path fill-opacity="0" stroke="#9DEEC7" stroke-width="6.5" d="M1230.584 803.67C1279.75 769.375 824.5 949.5 897.22 898.474c14.192-9.958 309.445 207.2 331.04 219.606 36.92 21.212 659.74 8.42 696.987 32.488 6.69 4.322 21.337-112.796 13.894-98.96-29.391 54.642-285.89-12.858-330.821 64.717-3.453 5.96-145.156-143.233-152.065-140.645-9.625 3.604-21.59 2.904-33.072-4.979-46.183-31.7-147.183-94.2-189.437-126.32-13.625-10.359-15.583-32.046-3.162-40.71z"/></g><g style="display:block" id="d"><path fill="#DB8D74" d="M521.5 303c-16.5 11-42 12.5-66 13.5s-53.834 22.53-51 52c2.5 26 27.5 43 54.5 43.5 30.012.556 61-2.5 100.5-24s36.5-55.5 23.5-77-45-19-61.5-8z" transform="rotate(-6 6207.043 -8631.536)"/><path fill-opacity="0" stroke="#3D3D3D" stroke-width="2" d="M1486.56 848.357c-15.26 12.664-40.464 16.822-64.228 20.325-23.764 3.503-51.184 28.034-45.285 57.046 5.204 25.596 31.844 39.89 58.748 37.565 29.906-2.584 60.405-8.863 97.441-34.374 37.036-25.51 30.499-59.011 15.323-79.034-15.177-20.024-46.74-14.193-62-1.528z"/></g><g style="display:block" id="n"><path fill="#FFF" d="M638.033-169.849c-41.207 112.587 498.002-704.754 437.397-537.737-11.827 32.594-744.654 15.526-794.265 19.972-84.82 7.601-1090.514 743.028-1179.146 746.325-15.917.593 94.439 209.272 90.759 178.065-14.53-123.236 483.127-306.895 467.747-485.528-1.182-13.726 402.119 68.144 410.47 55.978 11.633-16.946 32.039-29.524 59.893-29.783 112.027-1.042 349.193-14.511 455.264-10.36 34.205 1.339 62.291 34.624 51.881 63.068z" transform="rotate(-145 914.887 215.665) scale(.5)"/><path fill-opacity="0" stroke="#9DEEC7" stroke-width="6.5" d="M1230.584 803.67C1279.75 769.375 824.5 949.5 897.22 898.474c14.192-9.958 309.445 207.2 331.04 219.606 36.92 21.212 659.74 8.42 696.987 32.488 6.69 4.322 21.337-112.796 13.894-98.96-29.391 54.642-285.89-12.858-330.821 64.717-3.453 5.96-145.156-143.233-152.065-140.645-9.625 3.604-21.59 2.904-33.072-4.979-46.183-31.7-147.183-94.2-189.437-126.32-13.625-10.359-15.583-32.046-3.162-40.71z"/></g><g style="display:block" id="k"><path fill="#DB8D74" d="M521.5 303c-16.5 11-42 12.5-66 13.5s-53.834 22.53-51 52c2.5 26 27.5 43 54.5 43.5 30.012.556 61-2.5 100.5-24s36.5-55.5 23.5-77-45-19-61.5-8z" transform="rotate(-10 4091.52 -4911.194)"/><path fill-opacity="0" stroke="#3D3D3D" stroke-width="2" d="M1481.172 843.712c-14.34 13.698-39.191 19.603-62.653 24.756-23.462 5.152-49.104 31.536-41.195 60.066 6.976 25.17 34.549 37.571 61.225 33.375 29.653-4.664 59.64-13.054 94.806-41.087 35.166-28.032 26.308-60.995 9.772-79.91-16.536-18.917-47.616-10.898-61.955 2.8z"/></g><g style="display:block" id="u"><path fill="#FFF" d="M638.033-169.849c-41.207 112.587 498.002-704.754 437.397-537.737-11.827 32.594-744.654 15.526-794.265 19.972-84.82 7.601-1090.514 743.028-1179.146 746.325-15.917.593 94.439 209.272 90.759 178.065-14.53-123.236 483.127-306.895 467.747-485.528-1.182-13.726 402.119 68.144 410.47 55.978 11.633-16.946 32.039-29.524 59.893-29.783 112.027-1.042 349.193-14.511 455.264-10.36 34.205 1.339 62.291 34.624 51.881 63.068z" transform="rotate(-145 914.887 215.665) scale(.5)"/><path fill-opacity="0" stroke="#9DEEC7" stroke-width="6.5" d="M1230.584 803.67C1279.75 769.375 824.5 949.5 897.22 898.474c14.192-9.958 309.445 207.2 331.04 219.606 36.92 21.212 659.74 8.42 696.987 32.488 6.69 4.322 21.337-112.796 13.894-98.96-29.391 54.642-285.89-12.858-330.821 64.717-3.453 5.96-145.156-143.233-152.065-140.645-9.625 3.604-21.59 2.904-33.072-4.979-46.183-31.7-147.183-94.2-189.437-126.32-13.625-10.359-15.583-32.046-3.162-40.71z"/></g><g style="display:block" id="r"><path fill="#DB8D74" d="M521.5 303c-16.5 11-42 12.5-66 13.5s-53.834 22.53-51 52c2.5 26 27.5 43 54.5 43.5 30.012.556 61-2.5 100.5-24s36.5-55.5 23.5-77-45-19-61.5-8z" transform="translate(975 551.5)"/><path fill-opacity="0" stroke="#3D3D3D" stroke-width="2" d="M1496.5 854.5c-16.5 11-42 12.5-66 13.5s-53.834 22.53-51 52c2.5 26 27.5 43 54.5 43.5 30.012.556 61-2.5 100.5-24s36.5-55.5 23.5-77-45-19-61.5-8z"/></g><linearGradient id="bj" spreadMethod="pad" gradientUnits="userSpaceOnUse" x1="475" y1="-110.003" x2="566.067" y2="-38.825"><stop offset="0%" stop-color="#FFA75F"/><stop offset="50%" stop-color="#FFB78B"/><stop offset="100%" stop-color="#FFC7B8"/></linearGradient><linearGradient id="bf" spreadMethod="pad" gradientUnits="userSpaceOnUse" x1="475" y1="-110.003" x2="566.067" y2="-38.825"><stop offset="0%" stop-color="#FFA75F"/><stop offset="50%" stop-color="#FFB78B"/><stop offset="100%" stop-color="#FFC7B8"/></linearGradient><linearGradient id="bb" spreadMethod="pad" gradientUnits="userSpaceOnUse" x1="475" y1="-110.003" x2="566.067" y2="-38.825"><stop offset="0%" stop-color="#FFA75F"/><stop offset="50%" stop-color="#FFB78B"/><stop offset="100%" stop-color="#FFC7B8"/></linearGradient></defs><g clip-path="url(#am)"><g clip-path="url(#au)" style="display:block" transform="matrix(-1 0 0 1 1916 -23.5)"><g style="display:block"><path fill="#58CC02" d="M1230.485 803.743c49.265-34.368 132.015-92.243 204.643-143.202 2.002-1.405 3.906-2.71 5.76-3.878 4.8-3.029 9.266-5.15 14.243-5.77 6.718-.835 14.365 1.067 25.027 7.176 36.967 21.181 70.905 41.494 108.168 65.572 4.658 3.01 6.174 7.172 6.757 10.689.983 5.927-.897 11.436-3.946 17.277-3.012 5.768-6.232 11.558-9.996 18.377C1550.5 825.5 1502 911.25 1472.57 961.824c-4.698 8.072-10.57 15.176-16.747 21.73-4.887 5.184-14.269 14.656-20.551 18.658-11.597 7.387-24.773 4.218-34.089-2.01C1359.001 972 1261.5 906.5 1219.247 875.38c-8.648-6.368-11.976-19.711-10.496-25.73 2.25-9.15 4.91-17.376 8.08-24.263 3.17-6.887 7.327-17.231 13.654-21.644z"/><path stroke="#58CC02" stroke-width="6.5" d="M1230.485 803.743c49.265-34.368 132.015-92.243 204.643-143.202 2.002-1.405 3.906-2.71 5.76-3.878 4.8-3.029 9.266-5.15 14.243-5.77 6.718-.835 14.365 1.067 25.027 7.176 36.967 21.181 70.905 41.494 108.168 65.572 4.658 3.01 6.174 7.172 6.757 10.689.983 5.927-.897 11.436-3.946 17.277-3.012 5.768-6.232 11.558-9.996 18.377C1550.5 825.5 1502 911.25 1472.57 961.824c-4.698 8.072-10.57 15.176-16.747 21.73-4.887 5.184-14.269 14.656-20.551 18.658-11.597 7.387-24.773 4.218-34.089-2.01C1359.001 972 1261.5 906.5 1219.247 875.38c-8.648-6.368-11.976-19.711-10.496-25.73 2.25-9.15 4.91-17.376 8.08-24.263 3.17-6.887 7.327-17.231 13.654-21.644z" fill="none"/><path fill="#FFF" d="M1230.584 803.67c49.166-34.295 131.916-92.17 204.637-143.195 14.192-9.958 23.444-14.802 45.039-2.395 36.92 21.212 70.74 41.42 107.987 65.488 6.69 4.322 10.337 14.203 2.894 28.04-29.391 54.642-73.89 133.142-118.821 210.717-8.262 14.263-29.411 21.917-49.137 8.376-46.183-31.7-147.183-94.2-189.437-126.32-13.625-10.359-15.583-32.046-3.162-40.71z"/><path stroke="#9DEEC7" stroke-width="6.5" d="M1230.584 803.67c49.166-34.295 131.916-92.17 204.637-143.195 14.192-9.958 23.444-14.802 45.039-2.395 36.92 21.212 70.74 41.42 107.987 65.488 6.69 4.322 10.337 14.203 2.894 28.04-29.391 54.642-73.89 133.142-118.821 210.717-8.262 14.263-29.411 21.917-49.137 8.376-46.183-31.7-147.183-94.2-189.437-126.32-13.625-10.359-15.583-32.046-3.162-40.71z" fill="none"/></g><g mask="url(#av)" style="display:block"><g clip-path="url(#aw)"><path fill="#A175F9" d="M313.521 147.241a4.97 4.97 0 0 1-2.476-6.564l35.505-79.229c12.52-26.807 39.038-43.041 67.437-37.268 27.928 5.677 46.166 30.165 46.598 59.638l2.639 84.196c.083 2.65-1.929 4.894-4.581 5.12-10.243.868-36.31 1.758-68.379-2.829-33.357-4.771-65.251-17.812-76.743-23.064z" transform="rotate(-8.583 4699.224 -6075.784)" style="display:block"/><g style="display:block"><path fill="#A570FF" d="M1336.42 765.031c2.974-6.878 13.336-10.012 20.214-7.037 6.878 2.975 13.064 13.899 10.09 20.777 0 0-6.544 18.712-12.484 29.99-5.224 9.918-12.872 21.251-12.872 21.251-6.07 7.396-10.963 10.042-17.841 7.068-6.878-2.975-10.043-10.963-7.068-17.842 0 0 5.99-13.46 9.959-24.238 3.97-10.779 10.001-29.969 10.001-29.969z"/><path fill="#593F86" d="M1336.42 765.031s7.943-30.497 10.176-56.915l36.447 5.753c-.398 25.72-15.653 63.324-15.653 63.324-3.014 1.546-13.41 4.283-20.37 1.273-6.389-2.763-9.719-10.394-10.6-13.435z"/><path fill="#FFC6B7" d="M1387.742 757.71c-.135 5.54-4.738 9.922-10.279 9.787-5.54-.135-9.923-4.738-9.788-10.279.136-5.54 4.738-9.923 10.279-9.788 5.54.135 9.923 4.739 9.788 10.28z"/><path fill="#593F86" d="m1360.995 703.802-47.847 28.993c-11.288 6.84-6.764 24.174 6.428 24.624l79.677 2.718c13.231.451 18.9-16.618 8.029-24.172l-46.287-32.163z"/><path fill="#FFC6B7" d="M1359.187 735.148c-7.007-4.634-10.249-8.064-15.006-8.181-4.67-.115-8.663 2.985-9.887 7.278 5.11.195 17.55.637 24.893.903z"/></g><path fill="#FFC6B7" d="m452.334 91.53 4.291.879c6.08 1.246 9.997 7.025 8.751 12.908-1.246 5.883-7.186 9.642-13.266 8.396l-4.29-.88c-6.08-1.245-9.999-7.024-8.752-12.907 1.247-5.883 7.186-9.642 13.266-8.396zM416.72 32.314c24.256 5.058 40.846 27.56 38.541 52.277l-5.116 39.92c-2.524 13.181-12.859 21.445-25.152 20.885-12.066-.55-19.554-1.305-35.019-2.624-15.465-1.319-26.56-9.131-26.56-9.131-12.999-2.711-21.339-15.466-18.628-28.489a24.11 24.11 0 0 1 .936-3.302l13.566-37.444c8.519-23.515 32.991-37.189 57.432-32.092z" transform="rotate(-4.583 8010.151 -11704.136)" style="display:block"/><path fill="#FFF" d="M412.599 78.212c-6.132 3.04-7.257 9.111-7.45 10.036l-2.078 9.955c-.804 3.852 1.678 7.626 5.543 8.43l7.348 1.528c7.924 1.648 15.683-3.417 17.331-11.313.495-2.371 3.308-16.424 3.308-16.424s-16.193-6.083-24.002-2.212zm-14.702-3.734c3.902 5.915 3.593 9.268 3.279 11.761-.411 3.262-1.961 10.655-1.961 10.655-.863 4.124-4.939 6.767-9.102 5.904l-7.271-1.508c-8.179-1.696-13.434-9.638-11.738-17.74.661-3.158 3.897-16.189 3.897-16.189s19.186 1.492 22.896 7.117z" transform="rotate(-4.702 7863.334 -11520.215)" style="display:block"/><g mask="url(#ax)" style="display:block"><path fill="#3D3D3D" d="M1403.461 662.26c-.523 3.827-3.69 6.286-7.25 5.832-3.56-.454-6.04-3.81-5.644-7.473.397-3.664 1.093-9.894 1.093-9.894l13.074 1.006s-.75 6.702-1.273 10.53zm-29.433-2.307c-.39 4.326-3.69 6.286-7.25 5.832-3.56-.454-6-4.04-5.644-7.474.366-3.517.707-8.062.707-8.062l12.638 1.11s-.061 4.267-.45 8.594z"/></g><g mask="url(#ay)" style="display:block"><path fill="#A570FF" d="m1416.294 647.102-1.205 16.499-71.216-7.123 2.251-17.798 70.17 8.422z"/></g><path fill="#FFC6B7" d="M392.238 134.582a27.84 27.84 0 0 1 .557-7.168c3.172-15.155 18.137-24.871 33.426-21.7 4.08.846 7.06 2.538 9.233 4.487 5.034 4.515-43.121 26.188-43.216 24.381z" transform="rotate(-4.702 7863.334 -11520.215)" style="display:block"/><path fill="#EE9583" d="M404.942 119.172c5.947-7.414 11.462-9.776 16.117-6.04.85.682.993 1.938.319 2.804a1.942 1.942 0 0 1-2.757.333c-2.469-1.981-5.872-.523-10.64 5.42a1.942 1.942 0 0 1-2.762.291 2.018 2.018 0 0 1-.277-2.808zm-7.456-4.456c3.258.67 6.439-1.349 7.106-4.511.667-3.162-3.654-11.853-3.654-11.853l-.905.784c-2.011 1.78-6.716 6.163-7.239 8.641-.667 3.162 1.434 6.268 4.692 6.939z" transform="rotate(-4.583 8045.02 -11830.164)" style="display:block"/><path fill="#A570FF" d="M317.487 151.331c14.939-40.032 33.041-127.467 89.887-122.518.776.068 1.467.51 1.927 1.257 6.887 11.194-19.688 94.47-24.218 115.864-.547 2.583-2.975 3.862-5.614 3.912-18.097.341-47.746 1.797-61.982 1.485zM428.486 34.052c17.261 6.726 29.208 23.333 28.949 47.181 0 0-24.82-4.823-26.48-5.246-19.349-4.103-23.633-20.866-23.494-40.929l-4.837-6.023c8.329-.365 18.488 2.143 25.862 5.017z" transform="rotate(-4.583 8010.151 -11704.136)" style="display:block"/></g></g><g mask="url(#az)" style="display:block"><g clip-path="url(#aA)"><path fill="#E6A000" d="M0-59.292c32.723 0 59.292 26.569 59.292 59.292S32.723 59.292 0 59.292-59.292 32.723-59.292 0-32.723-59.292 0-59.292z" transform="matrix(.38973 .12663 -.0618 .19021 1493.225 685.26)" style="display:block"/><g style="display:block"><path fill="#FFC700" d="M1479.054 669.314c9.753-2.106 24.531 2.008 33.007 9.188 8.475 7.18 7.44 14.708-2.315 16.814-9.753 2.106-24.531-2.007-33.007-9.188-8.475-7.18-7.439-14.708 2.315-16.814z"/><path fill="#FFE700" d="M1506.04 676.633a28.068 28.068 0 0 1 3.133 2.286c1.821 1.542 3.122 3.104 3.912 4.604.165.313-.197.356-.652.456-4.6 1.008-22.786 4.933-25.267 5.457-.34.072-.928.213-1.803-.188-2.292-1.052-4.25-2.435-5.976-3.898a19.501 19.501 0 0 1-2.538-2.554c-.142-.175-.415-.45.61-.672 4.43-.957 20.728-4.438 26.91-5.773.817-.177 1.297.045 1.672.282zm-24.7-5.462c5.383-1.163 12.583-.078 18.92 2.509.45.184 1.581.769.25 1.082-1.333.313-21.493 4.574-23.888 5.091-1.403.303-1.725-.438-1.795-.671-1.11-3.721 1.123-6.847 6.512-8.011z"/></g><path fill="#E6A000" d="M0-59.292c32.723 0 59.292 26.569 59.292 59.292S32.723 59.292 0 59.292-59.292 32.723-59.292 0-32.723-59.292 0-59.292z" transform="matrix(.4813 .24524 -.13166 .2584 1514.025 734.632)" style="display:block"/><g style="display:block"><path fill="#FFC700" d="M1499.117 709.767c13.434-1.32 31.865 7.007 41.167 18.597 9.302 11.59 5.953 22.057-7.48 23.377-13.434 1.32-31.865-7.007-41.167-18.597-9.302-11.59-5.953-22.057 7.48-23.377z"/><path fill="#FFE700" d="M1532.827 724.7a34.675 34.675 0 0 1 3.535 3.763c1.998 2.49 3.304 4.919 3.953 7.173.136.47-.354.47-.98.534-6.34.643-31.386 3.102-34.8 3.422-.468.043-1.283.143-2.332-.573-2.75-1.876-4.97-4.164-6.865-6.525-1.101-1.373-1.992-2.727-2.679-4.043-.142-.271-.43-.707.982-.846 6.102-.6 28.537-2.752 37.053-3.588 1.125-.111 1.7.283 2.133.682zm-31.18-11.92c7.415-.728 16.636 2.03 24.322 6.762.546.337 1.887 1.356.046 1.572-1.841.217-29.584 2.815-32.882 3.14-1.932.19-2.162-.914-2.193-1.255-.487-5.449 3.284-9.489 10.706-10.218z"/></g><path fill="#E6A000" d="M0-59.292c32.723 0 59.292 26.569 59.292 59.292S32.723 59.292 0 59.292-59.292 32.723-59.292 0-32.723-59.292 0-59.292z" transform="matrix(.6486 .38971 -.22476 .37406 1500.135 794.898)" style="display:block"/><g style="display:block"><path fill="#FFC700" d="M1482.475 757.503c19.29-1.18 44.282 12.171 55.821 29.82 11.54 17.65 5.256 32.914-14.034 34.095-19.29 1.18-44.282-12.171-55.821-29.82-11.54-17.65-5.256-32.914 14.034-34.095z"/><path fill="#FFE700" d="M1528.227 781.484a46.427 46.427 0 0 1 4.478 5.761c2.48 3.791 3.983 7.453 4.578 10.82.125.703-.572.674-1.472.732-9.107.587-45.072 2.785-49.973 3.061-.67.038-1.843.139-3.23-.98-3.636-2.926-6.46-6.434-8.81-10.029-1.367-2.09-2.437-4.14-3.222-6.123-.162-.409-.509-1.069 1.52-1.193 8.761-.536 40.97-2.43 53.198-3.18 1.616-.098 2.376.517 2.933 1.131zm-42.595-19.386c10.65-.651 23.358 3.948 33.597 11.378.727.528 2.484 2.11-.165 2.324-2.648.214-42.467 2.464-47.203 2.754-2.775.17-2.942-1.473-2.935-1.979.099-8.074 6.049-13.825 16.706-14.477z"/></g><path fill="#E6A000" d="M0-59.292c32.723 0 59.292 26.569 59.292 59.292S32.723 59.292 0 59.292-59.292 32.723-59.292 0-32.723-59.292 0-59.292z" transform="matrix(.68536 .4799 -.32116 .45866 1420.606 831.336)" style="display:block"/><g style="display:block"><path fill="#FFC700" d="M1406.454 784.874c22.482-1.404 49.164 15.042 59.597 36.735 10.432 21.692.663 40.415-21.819 41.82-22.482 1.404-49.164-15.043-59.597-36.735-10.432-21.692-.663-40.416 21.819-41.82z"/><path fill="#FFE700" d="M1455.376 814.418a47.284 47.284 0 0 1 4.228 7.082c2.24 4.66 3.377 9.157 3.511 13.292.028.863-.772.826-1.822.895-10.618.7-52.534 3.315-58.242 3.643-.78.044-2.152.165-3.572-1.21-3.72-3.602-6.406-7.914-8.531-12.332-1.236-2.57-2.135-5.088-2.716-7.525-.12-.502-.412-1.313 1.952-1.46 10.21-.638 47.738-2.89 61.989-3.78 1.883-.118 2.66.639 3.203 1.395zm-46.03-23.896c12.412-.776 26.34 4.9 36.949 14.044.754.65 2.524 2.596-.572 2.852-3.095.257-49.473 2.927-54.992 3.272-3.235.202-3.157-1.815-3.067-2.436 1.442-9.91 9.261-16.956 21.683-17.732z"/></g><path fill="#E6A000" d="M0-59.292c32.723 0 59.292 26.569 59.292 59.292S32.723 59.292 0 59.292-59.292 32.723-59.292 0-32.723-59.292 0-59.292z" transform="matrix(.81915 .57358 -.43018 .61436 1303.57 843.462)" style="display:block"/><g style="display:block"><path fill="#FFC700" d="M1289.189 784.783c28.033-3.338 60.076 16.103 71.57 43.422 11.493 27.32-1.915 52.173-29.948 55.511-28.033 3.339-60.076-16.102-71.57-43.422-11.493-27.32 1.915-52.173 29.948-55.511z"/><path fill="#FFE700" d="M1347.981 819.638a53.725 53.725 0 0 1 4.773 8.863c2.47 5.869 3.577 11.603 3.463 16.936-.023 1.113-1.016 1.12-2.325 1.28-13.243 1.624-65.508 7.844-72.623 8.654-.973.11-2.685.36-4.357-1.32-4.378-4.402-7.424-9.79-9.765-15.355-1.362-3.236-2.308-6.43-2.865-9.538-.115-.64-.423-1.669 2.524-2.02 12.733-1.516 59.52-6.969 77.29-9.085 2.347-.28 3.261.645 3.885 1.585zm-55.58-27.754c15.475-1.843 32.399 4.545 44.963 15.641.892.788 2.96 3.183-.904 3.724-3.864.542-61.677 7.135-68.56 7.954-4.032.48-3.8-2.13-3.645-2.939 2.463-12.903 12.658-22.536 28.146-24.38z"/></g></g></g><path stroke="#9DEEC7" stroke-width="13" d="M396.003 355.089c-84.82 7.601-163.41 13.29-252.041 16.588-15.917.592-33.228-11.412-36.908-42.619-14.53-123.235-31.678-302.891-47.058-481.524-2.828-32.845 23.041-69.646 70.892-70.091 112.027-1.042 349.193-14.511 455.264-10.36" fill="none" transform="rotate(-145 914.887 215.665) scale(.5)" style="display:block"/></g><g clip-path="url(#aQ)" style="display:block" transform="matrix(-1 0 0 1 1976 -43.5)"><g style="display:block"><path stroke-linecap="round" stroke-miterlimit="10" stroke="#CC348D" stroke-width="23" d="M1747.583 389.84c-2.163-15.006 28.924-17.262 47.692-1.028" fill="none"/><path fill="#C6775C" d="M1762.59 387.678c1.195 8.288-4.556 15.975-12.844 17.17-8.289 1.194-15.975-4.556-17.17-12.844-1.195-8.288 4.555-15.976 12.843-17.171 8.289-1.195 15.977 4.556 17.172 12.845z"/><path fill="#5EC6FF" d="M1784.23 417.681c-2.474 9.58-17.414 14.003-33.368 9.88-15.954-4.121-26.881-15.229-24.406-24.808 2.474-9.58 17.011-26.774 36.437-21.755 19.566 5.055 23.812 27.104 21.337 36.683z"/><path fill="#0084C2" d="M1784.23 417.681c-2.474 9.58-17.414 14.003-33.368 9.88-15.954-4.121-26.881-15.229-24.406-24.808 2.474-9.58 17.414-14.003 33.368-9.88 15.955 4.121 26.881 15.23 24.406 24.808z"/><path fill="#FFCC76" d="M1759.824 392.872c-9.05-2.338-17.77-1.924-24.078.619-.378 5.932-.66 14.301-.435 16.412.013.124-.08.24-.074.366.28 6.916 3.485 12.506 9.955 13.478 4.688.705 9.135-1.448 11.607-5.144a13.22 13.22 0 0 0 6.892 3.25c7.26 1.091 14.031-3.908 15.122-11.169.531-3.527.194-4.054 1.369-6.091-4.34-5.075-11.585-9.454-20.358-11.72z"/></g><g mask="url(#aR)" style="display:block"><path stroke-linecap="round" stroke-miterlimit="10" stroke="#FFCC76" stroke-width="4.148" d="M1801.5 313.602c-15.067 5.778-35.966 28.187-26.955 33.149 9.012 4.961 19.584-24.915 43.539-17.74m-19.17 8.26c-11.67 5.878-20.136 19.751-32.135 39.814m33.941-33.915c-5.237 4.97-7.966 7.485-14.344 16.892-6.377 9.406-14.343 18.474-18.14 30.676" fill="none"/></g><path fill="#0084C2" d="M732.862-124.382c4.759-25.473 29.266-42.264 54.739-37.505s42.265 29.265 37.506 54.738-29.266 42.265-54.739 37.506-42.265-29.266-37.506-54.739z" transform="rotate(4.101 -6897.035 14540.02)" style="display:block"/><g mask="url(#aS)" style="display:block"><path fill="#006AAD" d="M1850.93 507.409c-17.187-1.336-34.238-3.752-49.61-20.118l-6.966.504c18.437 20.94 39.121 23.784 50.624 24.106a47.202 47.202 0 0 0 5.951-4.492z"/><path fill="#C6775C" d="M1789.099 416.185c4.317-16.051 20.782-25.606 36.86-21.394 16.151 4.233 25.815 20.758 21.583 36.91l-9.236 35.247c-1.052 4.01-3.896 7.317-7.72 8.916-15.757 6.583-28.108 11.136-32.771 12.817a3.209 3.209 0 0 1-3.483-.854c-8.23-9.104-13.174-19.575-15.39-25.007-.977-2.393-1.032-5.031-.36-7.528l10.517-39.107z"/><path stroke-linecap="round" stroke="#FFF" stroke-width="20.813" d="m1788.483 458.03 2.535-8.441m20.339 14.969 1.612-6.162" fill="none"/><path stroke-linecap="round" stroke="#3D3D3D" stroke-width="9.4" d="M1809.682 461.938s-1.09 2.504-1.271 5.03m-18.753-12.093s-.49 3.286-1.859 5.558" fill="none"/><path fill="#FFF" d="M1784.216 458.329c1.722.861 2.586 3.47 1.598 5.152-4.086 7.294-9.194-7.734-1.598-5.152zm19.51 7.525c2.047.572 3.397 2.547 2.593 4.731-2.624 4.696-6.359-4.106-2.594-4.73z"/><path fill="#C6775C" d="M1791.712 447.053a6.295 6.295 0 1 1 12.126 3.375 6.295 6.295 0 0 1-12.126-3.375z"/></g><path stroke-linecap="round" stroke="#3D3D3D" stroke-width="46.998" d="M806.508-160.321c-17.756 5.031-37.78.251-40.643-7.859" fill="none" transform="translate(1030 586.685)" style="display:block"/><path fill="#FFF" d="m756.151-159.828.792-1.802a5.805 5.805 0 0 1 10.63 4.672l-.792 1.802a5.805 5.805 0 0 1-10.63-4.672z" transform="translate(1030.125 586.81)" style="display:block"/><path fill="#CC348D" d="M745.232-224.137c-.304-28.44 22.505-51.741 50.945-52.045 28.44-.304 51.741 22.506 52.045 50.946.304 28.44-22.505 51.74-50.945 52.044-28.44.304-51.741-22.505-52.045-50.945z" transform="rotate(-4.101 9533.334 -14268.523)" style="display:block"/><path stroke-linecap="round" stroke-linejoin="round" stroke="#CC348D" stroke-width="23" d="M830.673-200.67s8.439 4.089 7.24 9.12c-2.891 12.125-25.743 15.5-25.743 15.5" fill="none" transform="rotate(-4.101 9533.334 -14268.523)" style="display:block"/><g mask="url(#aT)" style="display:block"><path fill="#0084C2" d="M1757.646 358.198c1.797-24.883 17.107-52.882 58.8-56.19 41.692-3.308 80.925 16.426 74.309 41.866-5.151 19.811-25.287 31.833-71.866 31.274-44.432-.534-61.433-14.324-61.243-16.95z"/><path stroke="#00448E" stroke-width="11" d="M1757.646 358.198c1.797-24.883 17.107-52.882 58.8-56.19 41.692-3.308 80.925 16.426 74.309 41.866-5.151 19.811-25.287 31.833-71.866 31.274-44.432-.534-61.433-14.324-61.243-16.95z" fill="none"/></g><g style="display:block"><path stroke-linecap="round" stroke-linejoin="round" stroke="#0084C2" stroke-width="20" d="M1816.482 325.822s-35.3-9.299-46.377-17.05c1.446-12.106 18.515-29.474 26.841-40.452" fill="none"/><path stroke-linecap="round" stroke-linejoin="round" stroke="#CC348D" stroke-width="14" d="M1817.535 259.133c-2.65-5.389-7.735-11.343-11.865-13.893" fill="none"/></g><g style="display:block"><path stroke-linecap="round" stroke-linejoin="round" stroke="#0084C2" stroke-width="20" d="M1816.715 325.731s-55.439 8.006-94.679-24.96" fill="none"/><path stroke-linecap="round" stroke-linejoin="round" stroke="#CC348D" stroke-width="14" d="M1708.499 281.071c-2.768 1.985-9.67 7.858-13.781 12.787" fill="none"/></g><g style="display:block"><path stroke-linecap="round" stroke-linejoin="round" stroke="#DAAF83" stroke-width="5" d="m1873.684 421.758-59.74 3.86m57.298 5.429-56.878-.498" fill="none"/><path stroke-linecap="round" stroke-linejoin="round" stroke="#C6775C" stroke-width="9" d="m1841.526 424.77-8.682 7.993" fill="none"/><path fill="#C6775C" d="m1843.782 428.883 4.327-4.088a8.535 8.535 0 0 0 .344-12.065l-3.617-3.828a8.534 8.534 0 0 0-12.065-.343l-4.326 4.087a8.534 8.534 0 0 0-.344 12.066l3.616 3.827a8.536 8.536 0 0 0 12.065.344z"/></g></g><g clip-path="url(#bc)" style="display:block" transform="matrix(-1 0 0 1 1916 -23.5)"><g style="display:block"><path stroke-linecap="round" stroke-linejoin="round" stroke="#FFC6B7" stroke-width="12" d="M1465.704 602.872c-3.175-1.562-13.754-2.384-20.248-1.26m-4.638 8.063c7.1.195 17.314-.692 22.706.553m-19.72 13.745c9.879-5.572 16.881-7.26 22.245-6.669m-1.788 17.584s2.315-9.332 7.578-17.219" fill="none"/><path stroke-linecap="round" stroke-linejoin="round" stroke="#FFC6B7" stroke-width="36" d="M1492.373 600.171c-9.826 3.282-14.383 5.005-22.493 8.98" fill="none"/><path stroke-linecap="round" stroke-linejoin="round" stroke="#33E3FF" stroke-width="36" d="M1509.793 595.014c-8.826 1.657-19.543 5.67-27.914 9.057" fill="none"/></g><path fill="#33E3FF" d="M632.357-113.458c11.24-27.424-26.752-59.024-58.971-46.48-31.115 11.747-44.256 22.074-44.256 22.074-12.944 8.45 81.756 98.006 87.765 72.639 0 0 4.474-22.147 15.462-48.233z" transform="rotate(-2.871 12500.714 -19246.408)" style="display:block"/><path stroke-linecap="round" stroke="#393939" stroke-width="27" d="m683.25 34.5 4.25 3.5" fill="none" transform="rotate(-26.795 2272.843 -1745.722)" style="display:block"/><path stroke-linecap="round" stroke-linejoin="round" stroke="#393939" stroke-width="23" d="m613.75 94-8.25 3.75" fill="none" transform="rotate(-27.656 2199.046 -1637.54)" style="display:block"/><path fill="#FFC7B8" d="M552.811-154.957c-14.873-8.982-34.962-11.237-52.179-1.891l-28.256 15.339a51.11 51.11 0 0 0-25.616 34.316l-7.98 37.63C434.57-49.714 440-30 458.986-17.428 477.972-4.856 510.5 12 528.501 43.852c6.897 12.204 42.974 11.603 54.934 7.15l38.691-9.376A38.335 38.335 0 0 0 651.93 8.839l6.319-51.72c-.568-6.318-6.973-19.296-11.519-26.102C621-107.5 590-132.5 552.811-154.957z" transform="rotate(-7.656 5341.323 -7089.907)" style="display:block"/><path fill="#EE9583" d="M523.147-6.062c2.236 3.145 5.699 3.51 8.324 1.644 2.625-1.866 3.418-5.255 1.182-8.401-2.236-3.145-9.483-4.798-10.202-4.287-.718.51-1.54 7.899.696 11.044z" transform="rotate(-7.656 5337.836 -7088.615)" style="display:block"/><g style="display:block"><path fill="#FFF" d="M1488.143 551.927c-8.012-4.443-20.135-2.614-25.744 3.885-4.633 5.368-3.152 12.11 3.466 15.78l9.918 5.5c8.013 4.443 20.135 2.613 25.744-3.886 4.633-5.368 3.153-12.11-3.465-15.78l-9.92-5.499zm29.909-24.184c-7.981-4.426-19.132-2.062-24.68 5.233-5.355 7.04-3.484 16.063 4.22 20.335l9.073 5.03c7.98 4.427 19.133 2.061 24.68-5.232 5.356-7.041 3.484-16.063-4.22-20.335l-9.073-5.031z"/><path fill="#FFC7B8" d="M1533.456 536.672c-5.181 4.612-10.832 17.713-12.067 27.067l16.191-14.412c.784-6.14 1.056-17.266-4.124-12.655z"/><path fill="#EE9583" d="M1530.136 555.592a2.223 2.223 0 0 0-1.717 2.63c.465 2.216.528 4.401-.043 6.497-.565 2.073-1.79 4.201-4.122 6.266a2.219 2.219 0 0 0-.19 3.133 2.22 2.22 0 0 0 3.135.191c2.926-2.591 4.65-5.448 5.462-8.421.804-2.95.67-5.877.105-8.578a2.221 2.221 0 0 0-2.63-1.718z"/><path fill="#4B4B4B" d="M1504.274 540.87a4.246 4.246 0 0 0 2.16 3.138c2.039 1.13 4.585.433 5.688-1.556a4.07 4.07 0 0 0 .28-.62l5.008 2.639c3.59 1.89 4.503 6.033 2.046 9.265-2.469 3.244-7.406 4.339-11.012 2.438l-6.092-3.209c-3.589-1.89-4.504-6.033-2.048-9.263 1.002-1.318 2.41-2.28 3.97-2.832zm-15.057 16.155c.172.08.34.168.506.26l5.252 2.91c3.877 2.15 4.785 6.085 2.134 9.256-2.306 2.758-7.417 3.558-10.792 1.688l-7.546-4.185c-3.218-1.784-3.972-5.048-1.772-7.68.98-1.172 2.387-2.044 3.973-2.577a4.503 4.503 0 0 0 2.147 2.62c2.098 1.162 4.67.535 5.744-1.402a3.75 3.75 0 0 0 .354-.89z"/></g><g mask="url(#bd)" style="display:block"><g clip-path="url(#be)" transform="rotate(-1.593 1572.018 440.84) scale(1.00759)"><g style="display:block"><path fill="#FFC7B8" d="M1531.072 472.95c5.547 1.538 10.722-2.436 11.558-8.872.835-6.437-2.985-12.9-8.532-14.438-5.547-1.538-10.722 2.436-11.557 8.872-.836 6.437 2.985 12.9 8.531 14.438z"/><path fill="#0084C2" d="M1476.51 610.578s56.633 59.035 75.738 52.288l84.852-53.299c15.31-5.119 16.846-112.947 8.034-122.726l-46.156-33.193-.192-.139-6.05-4.349-7.1 111.687-109.126 49.731z"/><path fill="#33E3FF" d="M1599.227 458.011c-6.193-5.901-32.26-23.432-32.26-23.432a89.37 89.37 0 0 1 2.122 5.235c15.96 43.123 4.178 106.142 2.463 109.162-15.069 26.531-97.039 53.239-102.455 51.97l17.197 15.416c27.382 2.193 90.182-24.41 102.765-40.754 10.975-14.252 13.347-94.227 10.168-117.597z"/></g><path fill="url(#bf)" d="M542.287-73.808a20.443 20.443 0 0 0-21.744-1.686l-66.346 34.981c-4.69 2.473-5.503 8.833-1.52 12.333 4.619 4.057 18.803 15.086 20.93 16.441 2.539 1.618 3.641 4.492 3.329 7.164L455.999 7.558C439.513-4.27 412.084-46.23 416.293-66.078c0 0 3.246-69.461 16.083-76.429 0 0 91.517-46.369 107.436-34.95l29.674 16.915 1.147.654-.456 92.437a8.424 8.424 0 0 1-7.201 8.168c-.631.092-20.689-14.525-20.689-14.525z" transform="rotate(-6.1 6395.181 -8836.617)" style="display:block"/></g></g><path fill="#FF9500" d="M471.057-93.124c12.841-.062 20.24-10.94 20.18-24.314-.058-13.373-7.554-24.177-20.396-24.115-12.841.062-21.425 10.944-21.366 24.318.059 13.374 8.74 24.173 21.582 24.11zm-1.815 36.76c14.43-1.586 24.739-15.56 23.025-31.212-1.714-15.653-14.801-27.056-29.231-25.469-14.43 1.587-24.739 15.56-23.025 31.211 1.714 15.653 14.801 27.056 29.231 25.47z" transform="rotate(13.033 -1649.566 4478.2)" style="display:block"/><path fill="#33E3FF" d="M637.81-65.136C633.75-56 626.831-54.6 622.786-55.983c-5.465-1.15-9.63-7.729-9.02-16.257 1.234-17.26 7.984-33.01 13.266-43.535 4.773-9.512 15.718-11.975 22.54-8.794 6.779 3.161 12.82 11.1 7.698 20.625-6.02 11.194-15.4 29.672-19.46 38.808z" transform="rotate(-2.871 12655.32 -19310.168)" style="display:block"/><g style="display:block"><path fill="#FFC6B7" d="M1635.824 456.778c-5.866-7.685-16.159-10.488-24.977-4.218-7.77 5.527-10.199 15.578-3.827 23.63 5.813 7.348 16.149 9.89 24.957 3.968 8.83-5.936 9.713-15.696 3.847-23.38z"/><path stroke-linecap="round" stroke="#EE9583" stroke-width="3.796" d="M1620.388 462.731c3.311 1.604 6.484 5.366 6.36 7.861" fill="none"/><path stroke-linecap="round" stroke-linejoin="round" stroke="#FFC6B7" stroke-width="12" d="M1612.779 456.724c-.241-4.111-1.786-8.325.45-12.08m20.984-2.238c-6.632-.485-14.192 6.97-13.817 10.477m24.075-2.925c-4.24.864-15.947 3.67-15.603 9.545m17.674 3.508c-4.175-2.42-10.752-.269-12.356 4.459" fill="none"/></g></g><g clip-path="url(#bq)" style="display:block" transform="matrix(-1 0 0 1 1976 -43.5)"><path fill="#58CC02" d="M303.202-41.464c15.252 94.999-16.572 140.035-80.655 155.537-84.448 20.428-144.155-35.09-168.05-85.71C36.399-9.976 30.616-52.358 30.657-87.61c-.444-43.663 11.413-88.05 49.968-103.743 17.557-7.146 35.65-8.205 49.161-2.375 20.939 9.036 29.482 14.181 37.231 18.153 4.249 2.178 127.361 79.148 136.185 134.111zm15-4c15.252 94.999-31.572 144.035-95.655 159.537-84.448 20.428-134.794-43.146-151.05-96.71C16-165.5 159.267-179.547 167.017-175.575a21.632 21.632 0 0 0 13.802 2.037c13.877-2.576 30.393-12.387 54.067-21.315 30.269-11.404 70.447 5.2 71.793 44.452 0 0 2.699 49.974 11.523 104.937z" transform="rotate(-2.899 12698.107 -20195.181)" style="display:block"/><path fill="#58CC02" d="M194.4-10.921c41.197 33.255 100.112 36.257 145.734 6.363 45.621-29.893 66.603-85.246 52.867-136.495-2.857-10.667-15.283-15.388-24.539-9.323L195.78-37.227c-9.256 6.065-9.954 19.384-1.38 26.306z" transform="rotate(20.741 -828.136 3085.418)" style="display:block"/><path fill="#58CC02" d="M198.976.515c-26.37 45.909-80.206 70.027-133.554 58.669C12.074 47.826-27.518 3.817-33.258-48.93c-1.195-10.977 8.679-19.874 19.504-17.569L188.17-23.511C198.993-21.206 204.464-9.04 198.976.515z" transform="rotate(-26.538 1893.804 -1907.001)" style="display:block"/><path stroke-linecap="round" stroke-linejoin="round" stroke="#F49000" stroke-width="35" d="M256.25 102.5 260 74.75" fill="none" transform="rotate(5.247 -5678.509 11782.579)" style="display:block"/><path stroke-linecap="round" stroke-linejoin="round" stroke="#F49000" stroke-width="35" d="m138 147-27-7.75" fill="none" transform="rotate(13.394 -1879.174 4855.877)" style="display:block"/><g mask="url(#bs)" style="display:block"><path fill="#89E219" d="M1233.517 628.51c-.94 8.723-7.538 16.103-16.448 18.135-8.91 2.031-17.916-1.791-22.34-9.29-.92-1.56-.01-3.585 1.797-3.997l34.541-6.057c1.809-.4 2.646-.605 2.45 1.21zm-58.296 12.91c-2.2 8.478-9.802 14.749-18.91 15.372-9.11.622-17.46-4.558-20.742-12.662-.683-1.686.512-3.545 2.36-3.671l34.478-2.359c1.848-.126 3.272 1.555 2.814 3.32zm35.718 19.777c-1.407 8.372-8.395 15.137-17.404 16.614-9.01 1.474-17.799-2.708-21.815-10.192-.836-1.555.182-3.461 2.01-3.76l33.293-6.18c1.827-.309 4.209 1.777 3.916 3.518zm22.437-68.632c-22.268 1.471-42.322-10.487-52.211-28.95-8.176.51-14.103.87-17.771 1.102-6.517.417-11.854.762-16.002 1.038-5.472 19.524-18.163 33.427-35.61 34.884-20.557 1.716-41.305-22.008-43.962-52.137-2.006-22.748-2.353-33.987-.828-46.242 1.635-13.151 6.465-22.651 13.876-29.55.337-11.906 9.441-22.275 13.834-22.458 2.472-.103 2.19.814 2.105 14.145 4.186-17.844 13.312-23.461 17.351-26.586 5.059-3.912 11.061-5.9 11.436 2.32.181 3.91 3.76 46.833 28.555 47.467 2.34.06 3.84.047 6.787-.279 15.364-1.694 44.15-34.464 55.35-47.94 6.967-8.385 11.507-6.872 13.293-4.252 4.062 5.951 5.576 12.22 4.75 18.612l9.347-12.023c1.84-2.354 5.44-2.255 7.123.209 4.375 6.407 6.24 14.027 5.575 21.517 14.888 8.976 25.285 24.845 26.526 43.503l1.793 27.057c2.012 30.333-20.963 56.557-51.317 58.563z"/></g><g style="display:block"><path fill="#F49000" d="M1188.046 562.132c-.702-10.599-9.863-18.62-20.461-17.918-10.002.663-17.816 8.895-17.958 18.918l-.021 27.169c-.17 11.937 9.884 21.48 21.797 20.69 11.268-.746 19.796-10.485 19.05-21.753l-2.407-27.106z"/><path fill="#B16900" d="M1181.253 564.18c.149-8.207-6.753-14.785-14.943-14.242-7.268.481-12.956 6.45-13.088 13.732l-.122 26.052c-.15 8.207 6.753 14.784 14.942 14.241 7.269-.481 12.956-6.449 13.089-13.732l.122-26.052z"/><path fill="#FFB8D1" d="M1181.443 573.272c-.168.008-.336.016-.504.028-12.626.837-22.183 11.75-21.346 24.375a23.02 23.02 0 0 0 .773 4.588 13.93 13.93 0 0 0 7.681 1.7c7.269-.481 12.956-6.449 13.089-13.732l.307-16.959z"/><path fill="#FFC200" d="M1136.68 566.046c-.126.742.318 1.455 1.028 1.707l10.224 1.299 41.216-5.026c.922-.165 1.512-1.084 1.22-1.974-3.86-11.738-15.285-20.28-28.184-19.425-13.055.865-23.396 11.064-25.503 23.419z"/><path fill="#FFDE00" d="M1166.09 554.122c2.104.79 4.39-.35 5.135-2.44.744-2.092-.304-4.536-2.44-5.135-4.173-1.168-9.297-1.062-13.38.794-2.022.918-2.967 3.254-2.08 5.29.887 2.034 3.24 2.932 5.29 2.08 1.758-.732 5.371-1.38 7.475-.59z"/></g><g style="display:block"><path fill="#FFF" d="M1266.16 532.106c1.4 21.114-14.583 39.364-35.697 40.763-21.113 1.399-39.363-14.583-40.762-35.696l-1.425-21.505c-1.4-21.114 14.583-39.363 35.697-40.762 21.114-1.4 39.363 14.582 40.762 35.696l1.425 21.504zm-129.439 8.576c1.4 21.114-10.591 39.1-26.782 40.173-16.189 1.072-30.45-15.173-31.848-36.287l-1.426-21.505c-1.399-21.113 10.594-39.098 26.782-40.171 16.192-1.073 30.45 15.173 31.85 36.287l1.424 21.503z"/><path fill="#4B4B4B" d="M1102.066 538.528c.815 9.883 7.81 17.373 15.624 16.726 7.815-.647 13.492-9.177 12.676-19.07l-1.574-19.087c-12.464 6.547-20.39-10.255-11.943-16.578-.663-.264-2.564-.378-3.682-.148-9.623 1.973-13.51 11.607-12.318 23.437.951 9.472 1.217 14.72 1.217 14.72zm94.94-6.119c.386 9.918 8.733 17.636 18.64 17.25 9.917-.375 17.635-8.722 17.25-18.639l-.735-19.134c-13.474 5.436-19.182-9.455-15.078-17.04a18.213 18.213 0 0 0-3.562-.22c-1.91.076-3.746.452-5.45 1.067-9.785 4.134-11.87 15.133-11.632 21.96.229 6.83.567 14.756.567 14.756z"/><path fill="#8EDF00" d="M1103.608 475.54c-25.964 2.105-30.092 15.622-31.049 23.734-2.018 17.092 2.267-1.01 2.267-1.01 16.53-25.756 47.608-24.945 65.223 11.662 4.074-20.427-.358 1.175-2.705-13.442-2.348-14.616-15.236-22.443-33.736-20.944zm-18.895 107.832c6.124 2.895 8.41 7.125 23.005 9.847 14.595 2.723 10.954 2.808 13.207 3.142-3.768-2.071-29.836-9.847-36.212-12.989zm139.692-113.013c-30.952-.036-40.98 20.839-40.295 38.063.686 17.223.382 1.25.382 1.25 7.266-49.03 59.768-48.982 81.16-18.072-.194-8.046 2.95 21.586 1.22 6.814-1.73-14.772-20.413-28.029-42.467-28.055zm-3.936 115.166c-12.65-1.767-16.656-2.482 7.313 1.791 19.3 3.441 31.772-5.504 40.744-16.732-5.513 6.448-25.68 16.122-48.057 14.941z"/></g></g><g clip-path="url(#bC)" style="display:block" transform="matrix(-1 0 0 1 1976 -43.5)"><path fill="#FFCBA3" d="M207.83-329.086c6.568 0 11.893 5.382 11.893 12.022 0 6.64-5.325 12.023-11.894 12.023-6.568 0-11.894-5.383-11.894-12.023s5.326-12.022 11.894-12.022z" transform="rotate(.02 -1895868.435 3976118.62)" style="display:block"/><path fill="#FFB100" d="M222.258-321.526c-7.964-3.545-13.199-.115-15.57 4.31-2.37 4.426-1.901 11.766 5.554 15.417 7.454 3.652 23.642 14.426 33.964 23.123 3.96 3.337 11.691 3.732 16.212-2.294 4.521-6.027 1.073-13.066-2.608-16.598-7.444-7.14-29.588-20.412-37.552-23.958z" transform="rotate(.02 -1895868.452 3978091.017)" style="display:block"/><path fill="#3D3D3D" d="M176.406-312.355c0 9.562-7.752 17.313-17.314 17.313-9.563 0-17.315-7.751-17.315-17.313 0-9.563 7.752-17.316 17.315-17.316 9.562 0 17.314 7.753 17.314 17.316zm-21.343-11.892c-13.511-11.937-14.787-32.568-2.85-46.08l22.652-26.693c11.937-13.512 32.567-14.788 46.079-2.85 14.326 12.657 14.76 34.86.939 48.067l-.997.596a94.765 94.765 0 0 0-10.584 11.98l-7.422 9.988c-11.403 15.344-33.491 17.65-47.817 4.992z" transform="rotate(.02 -2327825.62 4086564.938)" style="display:block"/><path fill="#E89665" d="M170.119-403.653c2.087.944 3.005 3.418 2.051 5.527-.954 2.109-6.986 5.386-6.986 5.386s-1.522-6.695-.568-8.804c.954-2.108 3.417-3.052 5.503-2.109z" transform="rotate(-1.926 18193.86 -30824.764)" style="display:block"/><path fill="#FFCBA3" d="M219.585-404.105c-21.544-12.439-49.093-5.057-61.532 16.488-12.439 21.545-5.057 49.093 16.487 61.532l29.192 16.854 45.045-78.02-29.192-16.854z" transform="rotate(.02 -2327233.844 4083327.87)" style="display:block"/><g style="display:block"><path fill="#FFB100" d="M1223.172 205.452c-20.148 27.46-20.942 91.232 48.005 114.197l35.222-57.488 33.61-61.916c-52.853-29.087-91.261-29.65-116.837 5.207z"/><path fill="#FFF" d="M1259.322 199.967c2.096 2.069 1.864 5.7-.518 8.113-2.382 2.412-6.01 2.69-8.105.622-2.096-2.069-1.864-5.7.518-8.113 2.381-2.412 6.01-2.69 8.105-.622zm-31.842-7.867c24.443 12.2 45.212-9.133 37.29-12.963-3.964.24-9.534 2.21-14.277 3.78-9.715-1.021-18.005 3.922-23.013 9.183zm-15.193 30.8c18.184 8.062 42.239-21.506 22.894-32.694-5.031 3.062-18.534 15.184-22.894 32.694z"/><path fill="#FF9500" d="M1289.531 251.059c-19.071 33.013-28.198 62.952-18.782 68.391 9.416 5.44 31.389-17.36 50.46-50.372 19.071-33.014 28.019-63.74 18.603-69.18-9.415-5.438-31.21 18.147-50.28 51.16zm-38.988-68.147c16.833.906 39.501 8.704 55.73 16.917a7.99 7.99 0 0 0 8.155-.575c2.875-1.984 6.417-5.014 10.844-6.654-30.558-14.487-55.067-17.8-74.73-9.688zm-34.759 36.549c-10.02 27.048-5.293 67.987 34.902 91.11-4.055-14.764 9.087-45.125 14.774-58.932 1.579-3.834-.017-8.238-3.696-10.151-9.987-5.194-30.756-16.243-45.98-22.027z"/></g><path fill="#FFCBA3" d="M208.585-408.855c-7.835-3.645-36.835-2.645-50.532 21.238-12.377 21.58-5.057 49.093 16.487 61.532 0 0 2.21 1.585 4.192 2.604C165-376.5 201.25-403.25 213.777-407.001c-1.277-.999-5.192-1.854-5.192-1.854z" transform="rotate(.02 -2327825.603 4084592.54)" style="display:block"/><g style="display:block"><path fill="#9F9F9F" d="M1189.335 210.786c-5.495 16.571-1.15 35.544 11.619 47.457 4.01-18.13.62-38.405-11.62-47.457z"/><path fill="#B23232" d="m1217.432 198.798 1.413 3.227c1.33 3.042-.098 6.556-3.193 7.85-3.094 1.293-6.681-.124-8.012-3.165l-1.413-3.228c-1.33-3.042.099-6.555 3.193-7.85 3.094-1.293 6.681.124 8.012 3.166z"/></g><g mask="url(#bD)" style="display:block"><path fill="#F14C4C" d="M1212.477 204.41a6.494 6.494 0 0 1 5.561 3.53 5.994 5.994 0 0 1-10.575-.678l-.221-.491a6.488 6.488 0 0 1 5.235-2.36z"/></g><g mask="url(#bE)" style="display:block"><path fill="#FFF" d="M1195.135 180.534c2.587-4.663 5.771-7.841 7.112-7.098l1.805 1.027c1.278.71.099 5.202-2.394 9.695-2.491 4.493-5.678 7.874-6.957 7.165l-1.822-.997c-1.34-.743-.33-5.128 2.256-9.792zm-11.705 21.243c2.587-4.664 5.77-7.842 7.111-7.098.05.027 1.757 1 1.806 1.026 1.278.71.098 5.202-2.394 9.696-2.492 4.492-5.678 7.873-6.957 7.164l-1.822-.997c-1.34-.744-.33-5.127 2.256-9.791z"/><path fill="#4B4B4B" d="M1185.19 199.76c1.24-2.234 2.765-3.756 3.408-3.4.023.013 1.245.615 1.268.628.613.34.047 2.493-1.147 4.645-1.193 2.152-2.72 3.772-3.332 3.432-.023-.013-1.253-.6-1.277-.614 1.969-2.455 2.574-5.045 1.08-4.69zm9.13-16.63c1.24-2.235 2.765-3.757 3.408-3.401.023.013 1.245.615 1.269.628.612.34.046 2.493-1.148 4.645-1.193 2.152-2.72 3.772-3.332 3.432-.024-.013-1.254-.6-1.277-.613 1.968-2.455 2.574-5.046 1.08-4.692z"/><path stroke-linecap="round" stroke-linejoin="round" stroke="#E89665" stroke-width="3" d="m-50.353 5.574 8.892 4.251-8.985 3.287m74.943-6.57L17.39 8.811l8.055 3.69" fill="none" transform="matrix(.42177 -.76044 .21862 .12126 1196.999 182.659)"/></g><path fill="#FFCBA3" d="M198.06-324.515c7.015 0 12.703 5.749 12.703 12.84 0 7.092-5.688 12.84-12.704 12.84-7.016 0-12.703-5.748-12.703-12.84 0-7.091 5.687-12.84 12.703-12.84z" transform="rotate(.02 -2128608.06 3788736.516)" style="display:block"/><path fill="#FFB100" d="M211.134-321.324c-9.288-1.043-12.92 4.383-13.812 9.679-.892 5.296 1.162 12.41 9.964 13.727 8.802 1.317 30.939 6.608 43.538 10.881 4.944 1.649 12.406-.532 14.598-7.832 2.192-7.301-3.537-12.784-8.265-14.854-9.56-4.186-36.735-10.557-46.023-11.6z" transform="rotate(.02 -2130580.494 3792681.295)" style="display:block"/><path stroke-linecap="round" stroke-linejoin="round" stroke="#FF9500" stroke-width="12" d="M370.75-299.25s7.62 1.701 12 6.25" fill="none" transform="rotate(1.578 -18779.517 34869.931)" style="display:block"/><path stroke-linecap="round" stroke-linejoin="round" stroke="#FF9500" stroke-width="12" d="M349-258.75s6.251 6.174 8 12.25" fill="none" transform="rotate(-2.956 11297.176 -18619.29)" style="display:block"/><g style="display:block"><path stroke-linecap="round" stroke-linejoin="round" stroke="#00BDFF" stroke-width="7" d="m1167.545 162.074 6.538-3.304m-.632 13.522 5.666-3.156m-6.4 9.762c10.606 5.507 17.705 1.523 20.968-.392" fill="none"/><path fill="#00BDFF" d="M1120.37 192.12c-2.082.496-3.838-1.6-2.985-3.564l2.365-5.45 6.4 7.636-5.78 1.377zm-4.487-8.849c-1.784-1.185-1.45-3.899.569-4.614l5.599-1.986-1.22 9.888-4.948-3.288zm24.817 13.708c-9.75 2.425-19.622-3.513-22.048-13.264-2.425-9.752 3.515-19.622 13.265-22.047 0 0 11.536-2.78 19.713-6.621 8.178-3.842 19.864-1.686 24.73 7.105 4.866 8.79 1.314 19.638-7.107 24.729-8.42 5.09-28.553 10.098-28.553 10.098z"/><path fill="#FFF" d="M1139.742 188.826a6.173 6.173 0 0 1-7.844-3.831l-2.393-6.966a6.173 6.173 0 0 1 11.675-4.012l2.393 6.964a6.173 6.173 0 0 1-3.83 7.845z"/><path fill="#FFA3A3" d="M1134.199 179.221c.567.257.8.938.512 1.489l-.792 1.509c-.44.841-1.674.747-1.982-.151l-.76-2.212c-.31-.898.605-1.732 1.47-1.339l1.552.704z"/><path fill="#00729A" d="M1130.128 184.656a2.274 2.274 0 1 0-4.464-.872 2.274 2.274 0 0 0 4.464.872zm-1.25-3.775a2.273 2.273 0 1 0-4.463-.87 2.273 2.273 0 1 0 4.463.87z"/></g></g><g clip-path="url(#bJ)" style="display:block" transform="matrix(-1 0 0 1 1916 -23.5)"><g style="display:block"><path fill="#4CC5FF" d="M1601.241 781.717c4.068-4.552 11.056-4.943 15.607-.874l17.244 15.416c4.551 4.07 4.943 11.056.874 15.607l-3.925 4.389c-8.126 8.83-14.749 4.571-25.856-2.9-10.346-7.97-16.527-16.825-9.163-25.638l5.22-6z"/><path fill="#1CB0F6" d="M1613.039 799.43c-7.654-6.5-9.263-13.714-5.707-17.957 5.565-6.639 19.278-21.213 28.465-28.37 6.118-4.766 27.138-13.825 49.282-19.127 9.783-2.34 19.61 3.69 21.954 13.472 2.343 9.783-3.69 19.611-13.471 21.954-12.015 2.88-31.884 10.842-35.743 12.765-2.977 2.826-15.77 14.468-22.67 22.725-4.453 5.327-15.198.406-22.11-5.463z"/><path stroke-linecap="round" stroke="#FF4B4B" stroke-width="12.767" d="M1580.211 814.43c7.994 6.448 20.174 4.63 20.174 4.63" fill="none"/></g><g style="display:block"><path fill="#A46648" d="m1662.29 672.213 22.645 36.728c3.91 5.412 11.468 6.628 16.879 2.717 5.411-3.909 6.629-11.465 2.717-16.878l-29.614-29.506a7.204 7.204 0 0 0-12.627 6.94z"/><path stroke-linecap="round" stroke-linejoin="round" stroke="#A46648" stroke-width="6.515" d="m1655.46 664.822 7.888 2.497m-2.415-12.398 2.455 7.42m2.75-8.303.885 9.093m5.076-5.54-1.102 5.575" fill="none"/></g><g style="display:block"><path fill="#3D3D3D" d="m1722.036 645.276 25.512-19.176c9.318-6.993 22.54-5.109 29.533 4.21l6.784 9.036c6.992 9.318 5.108 22.54-4.21 29.534l-8.082 6.065c-9.318 6.994-22.54 5.11-29.534-4.209l-20.003-25.46zm9.423-5.628-14.108 45.32-27.306-9.129c-9.956-3.592-15.116-14.577-11.523-24.534l3.485-9.657c3.591-9.957 14.575-15.115 24.532-11.523l24.92 9.523zm25.549 19.818c1.287 10.507-50.481 16.846-51.768 6.34l-4.133-33.737c-1.286-10.507 6.188-20.068 16.695-21.354l13.72-1.68c10.507-1.287 20.067 6.187 21.354 16.693l4.132 33.738z"/><path fill="#A46648" d="m1736.257 713.943-37.245-12.013c-8.327-2.686-13.389-11.11-11.852-19.724l4.299-24.08a14.638 14.638 0 0 1 10.545-11.25l27.635-7.44a19.867 19.867 0 0 1 18.425 4.39l11.51 13.283a26.795 26.795 0 0 1 5.188 25.97l-6.483 19.576c-2.963 9.2-12.824 14.255-22.022 11.288z"/><path fill="#FDB02A" d="m1763.599 686.59 1.163-3.51a26.795 26.795 0 0 0-5.188-25.971l-11.51-13.283a19.867 19.867 0 0 0-18.425-4.39l-14.348 3.863c11.462 2.65 33.5 11.19 48.308 43.291zm-48.308-43.291-13.287 3.577a14.638 14.638 0 0 0-10.545 11.25l-1.48 8.29c8.08-11.906 25.312-23.117 25.312-23.117zm.697-1.444c.238.692-.243 1.367-.967 1.463-6.51.866-13.99-2.702-15.584-10.307-.15-.716.238-1.425.968-1.464 9.674-.52 13.801 5.12 15.583 10.308zm-.59 1.386a1.102 1.102 0 0 1-1.462-.967c-.31-4.183.204-12.245 10.308-15.584a1.106 1.106 0 0 1 1.463.968c.556 7.653-2.981 13.062-10.308 15.583z"/><path fill="#A46648" d="M1762.221 676.74a8.151 8.151 0 0 1-10.494 4.776 8.151 8.151 0 0 1-4.775-10.494 8.152 8.152 0 0 1 10.494-4.775 8.152 8.152 0 0 1 4.775 10.493z"/></g><g style="display:block"><path fill="#FFF" d="M1713.427 661.492c.226-3.946 3.673-7.36 7.564-7.493 3.892-.134 6.648 3.07 6.046 7.028l-1.174 7.72c-.532 3.497-3.653 6.338-7.092 6.455-3.438.116-6.441-1.323-6.242-4.808l.898-8.902z"/><path fill="#A46648" d="M1711.648 673.766c1.596-2.643 11.517-6.217 15.702-5.474l-3.948 9.47c-6.19 1.468-11.754-3.996-11.754-3.996z"/><path stroke-linecap="round" stroke="#86401F" stroke-width="4" d="M1697.144 668.65c4.213-3.3 8.598.41 8.598.41" fill="none"/><path fill="#86401F" d="M1710.07 669.458c.101.012 2.054 3.364 1.9 4.695a2.425 2.425 0 0 1-4.817-.555c.153-1.33 2.818-4.151 2.918-4.14zm-.376 7.13-2.094.18a2.497 2.497 0 0 1-.425-4.975l2.094-.18a2.498 2.498 0 0 1 .425 4.976z"/><path fill="#A41414" d="M1725.032 679.619c-1.397 5.974-11.323 10.616-18.647 6.596-2.163-1.189-1.44-4.196.863-5.083 3.156-1.215 5.916-3.129 8.443-5.678 2.528-2.55 5.806-3.316 7.916-.936 1.105 1.247 1.93 2.943 1.425 5.1z"/><path stroke-linecap="round" stroke="#3D3D3D" stroke-width="6.095" d="m1721.409 660.662-.285 4.967" fill="none"/><path fill="#E64340" d="M1714.645 684.174c-1.441-2.31.025-5.827 3.275-7.856 2.132-1.33 4.501-1.69 6.286-1.13.789 1.155 1.244 2.612.876 4.399-.755 3.674-4.278 5.708-5.87 6.453-1.956.166-3.694-.469-4.567-1.866z"/><path fill="#E7E7E7" d="M1719.897 677.09a5.596 5.596 0 0 1-9.227 2.385c1.824-1.073 2.828-1.74 5.071-4.053 2.243-2.312 5.807-3.316 7.917-.935.292.33.56.69.79 1.083-.333.354-1.463 2.3-4.551 1.52z"/></g><path fill="#FDB02A" d="m749.545 173.4-6.236 3.947c-11.545 7.307-26.828 3.871-34.135-7.675l-3.946-6.236c-7.229-11.421-3.83-26.538 7.59-33.766 14.99-9.487 34.832-5.027 44.319 9.963 7.228 11.421 3.829 26.539-7.592 33.767zm-2.502-9.683-33.434-7.517 4.609-20.499c2.076-9.233 11.242-15.035 20.475-12.959 9.232 2.076 15.034 11.242 12.958 20.475l-4.608 20.5z" transform="rotate(4.354 -6279.16 13308.654)" style="display:block"/><path fill="#1CB0F6" d="M740.472 155.971c10.32 11.635 9.254 29.433-2.381 39.753s-29.433 9.254-39.753-2.381-9.254-29.433 2.381-39.753 29.433-9.254 39.753 2.381z" transform="rotate(4.354 -6285.736 13308.404)" style="display:block"/><g style="display:block"><path stroke-linecap="round" stroke-linejoin="round" stroke="#A46648" stroke-width="13" d="m1758.468 725.121 3.132-25.084m5.788 23.851 12.671-13.775" fill="none"/><path fill="#A46648" d="m1727.348 728.765 12.487 18.166 29.248-26.043s-27.569-4.112-30.699-4.486c-3.13-.374-6.62-1.118-9.237.996a8.586 8.586 0 0 0-1.8 11.367zm51.253 5.298-.065-.413c-.902-5.689-3.79-10.567-7.785-13.947-4.426-3.745-10.21-5.652-16.162-4.788-11.323 1.645-18.208 12.535-16.325 24.396l.064.408c1.882 11.862 11.891 20.688 23.215 19.04 11.323-1.647 18.96-12.703 17.058-24.696z"/><path stroke-linecap="round" stroke="#86401F" stroke-width="4" d="m1742.54 730.598 11.187-8.676c2.837-2.2 6.969-1.862 9.23.755 0 0 0 0 0 0 2.26 2.617 1.793 6.521-1.044 8.72l-11.186 8.676" fill="none"/></g><g style="display:block"><path fill="#1CB0F6" d="M1696.405 769.425c-8.887 1.04-17.68-4.028-20.992-12.775-1.238-3.268-2.824-7.199-4.825-11.196-5.914 5.034-8.056 11.303-12.906 17.63-6.705 8.747-19.233 10.402-27.981 3.695-8.747-6.705-10.403-19.234-3.697-27.98.285-.372 8.514-9.26 16.515-17.884 15.82-17.05 24.942-23.958 34.829-23.02a20.711 20.711 0 0 1 13.44 6.744c11.56 12.415 18.084 27.533 21.995 37.857 3.91 10.319-1.288 21.853-11.608 25.763-1.571.594-3.174.98-4.77 1.166z"/><path stroke-linecap="round" stroke-linejoin="round" stroke="#0395DB" stroke-width="4" d="m1658.413 759.47 11.542-15.644s6.916 21.467 14.823 23.437" fill="none"/><path fill="#5EC6FF" d="M1648.852 777.263c-2.927 3.803-13.043.924-22.596-6.428s-14.924-16.395-11.997-20.197c.754-.981 9.633-12.314 11.492-14.617 2.993-3.706 13.138-.547 22.298 6.343 9.16 6.89 14.814 16.038 11.958 20.186-2.857 4.148-10.762 14.202-11.155 14.713z"/><path stroke-linecap="round" stroke="#33B4F7" stroke-width="4.078" d="M1619.707 751.551c4.315.529 10.073 3.158 15.575 7.433 5.503 4.274 9.475 9.203 11.054 13.255" fill="none"/><path stroke-linecap="round" stroke="#FF4B4B" stroke-width="13.049" d="M1607.12 758.912c6.738 6.99 16.926 12.71 16.926 12.71" fill="none"/></g></g><g clip-path="url(#bO)" style="display:block" transform="matrix(-1 0 0 1 1916 -23.5)"><path fill="#FFB7E3" d="M467.017-248.933s-21.285-1.263-52.276-3.165c-15.682-.962-21.741 12.598-21.142 21.885.599 9.287 9.345 23.196 24.422 18.787 30.521-8.926 62.293-17.748 62.293-17.748l-13.297-19.759z" transform="rotate(9.532 -2455.967 5889.568)" style="display:block"/><g style="display:block"><path fill="#FFB7E3" d="M1392.167 308.09c-30.275-6.957-47.257-10.3-60.095-12.838-12.838-2.54-25.18 13.948-25.43 29.696-.252 15.86 11.519 29.052 24.803 28.342 13.363-.71 25.702-.891 57.221-4.546 15.534-1.801 19.462-10.745 20.49-18.18 1.028-7.434-1.634-18.945-16.989-22.473z"/><path fill="#FF9BDE" d="M1344.737 330.21c-3.727 12.399-14.3 19.879-23.611 16.707-9.312-3.171-13.838-15.793-10.11-28.193 3.729-12.399 14.3-19.88 23.612-16.708 9.311 3.171 13.837 15.794 10.11 28.193z"/></g><path stroke-linecap="round" stroke-linejoin="round" stroke="#FF7AD5" stroke-width="28.577" d="M332.758-229.747c4-8.5 9.539-19.824 15.21-28.58" fill="none" transform="rotate(-8.794 4373.074 -6295.597)" style="display:block"/><path stroke-linecap="round" stroke-linejoin="round" stroke="#FF86D0" stroke-width="15" d="M502.881-191.052c.376-4.651-.544-10.655-2.324-15.564" fill="none" transform="rotate(-27.522 2159.558 -1908.34)" style="display:block"/><path fill="#FFB7E3" d="M477.637-216.167c-7.613 5.833-.003.004-.006.006 0 0-18.631 14.661-50.031 23.985-8.308 2.467-15.805 6.766-15.948 15.431-.142 8.665 6.764 15.82 15.43 15.948 28.668.422 61.793-23.578 70.09-30.808 7.129-6.212 7.901-15.269 2.504-22.049-5.394-6.777-14.426-8.346-22.039-2.513z" transform="rotate(6.179 -4332.248 9104.665)" style="display:block"/><path fill="#FFB7E3" d="M457.463-227.353c-11.621 5.879-32.272 15.702-43.279 41.145-11.007 25.443 20.779 26.539 27.111 14.999 7.705-14.041 24.272-24.118 27.134-26.05 17.148-11.237 6.297-41.165-10.961-30.097" transform="rotate(4.029 -7134.46 13913.497)" style="display:block"/><path fill="#FFB3E6" d="M528.609-252.517c-1.324-2.088 4.65-9.711 4.65-9.711l14.956 10.268a12.758 12.758 0 0 0 7.223 2.241l22.195.002c4.776 0 7.827 5.094 5.572 9.305l-2.776 5.185a32.342 32.342 0 0 0-3.439 10.258c-.964 6.153-7.198 9.99-13.126 8.079l-5.291-1.706a42.078 42.078 0 0 1-26.151-24.402l-3.813-9.519z" transform="rotate(-5.253 7238.476 -10603.58)" style="display:block"/><g style="display:block"><path fill="#FFB7E3" d="M1469.407 302.273c17.647 14.177 20.457 39.973 6.28 57.62-6.865 8.545-19.886 15.102-32.948 12.025-13.997-3.297-23.003-15.651-28.946-25.697-3.55-5.997-5.903-11.314-7.088-18.04-1.185-6.727.515-14.3 5.084-19.627 14.74-17.18 39.973-20.458 57.618-6.281z"/><path fill="#FF86D0" d="M1484.337 339.84a41.1 41.1 0 0 0 .378-5.655l-6.753-15.708-18.74-22.203a40.495 40.495 0 0 0-3.822-1.343l-5.968-1.294c-.023-.004-.044-.008-.067-.01-8.201 7.313-9.77 21.001-2.708 31.534 8.307 12.394 21.608 19.313 37.68 14.68z"/><path fill="#FFB3E6" d="M1459.665 331.114a.666.666 0 0 1 .98-.015l2.706 2.838a.666.666 0 0 1 .013.907l-4.433 4.908a.666.666 0 0 1-.942.047l-2.883-2.607a.667.667 0 0 1-.05-.94l4.61-5.138zm-12.686-23.036c.359-.15.769.038.89.408l1.223 3.726a.666.666 0 0 1-.379.824l-6.112 2.525a.666.666 0 0 1-.87-.362l-1.483-3.594a.667.667 0 0 1 .36-.87l6.37-2.657z"/><path fill="#1CB0F6" d="M1457.845 288.5c27.43-1.806 40.02 21.407 32.716 40.8l-.935 2.48c-3.248 8.627-23.031 11.944-35.622-6.122-14.733-19.298-6.474-36.043 3.841-37.158z"/></g><path stroke-linecap="round" stroke-linejoin="round" stroke="#1CB0F6" stroke-width="21" d="M493.387-355.206s-.42 26.575-.913 38.987c-.5 12.586-2.067 36.011-2.067 36.011" fill="none" transform="rotate(1.582 -19640.32 35328.587)" style="display:block"/><path stroke-linecap="round" stroke="#1CB0F6" stroke-width="21" d="M510.467-244.478s25.14 2.659 37.723 3.673c15.048 1.213 45.12 3.004 45.12 3.004" fill="none" transform="rotate(1.582 -19640.32 35328.587)" style="display:block"/><path fill="#E18E70" d="M495.071-354.738c-6.063 6.951-16.614 7.671-23.566 1.608-6.952-6.064-7.672-16.615-1.609-23.566 6.064-6.952 16.615-7.673 23.567-1.609 6.952 6.064 7.671 16.615 1.608 23.567z" transform="rotate(1.582 -19631.43 35834.84)" style="display:block"/><path fill="#E18E70" d="M592.492-232.902c-7.193-7.197-7.191-18.862.006-26.057 7.198-7.194 18.865-7.191 26.058.006 7.194 7.198 7.191 18.864-.007 26.058-7.198 7.194-18.862 7.19-26.057-.007z" transform="rotate(1.582 -19938.1 35154.12)" style="display:block"/><path fill="#FFB3E6" d="M606.933-297.91c-9.289 35.122-45.292 56.063-80.414 46.774-35.122-9.29-56.063-45.292-46.774-80.414 9.289-35.122 45.292-56.063 80.414-46.774 35.122 9.289 56.063 45.292 46.774 80.414z" transform="rotate(7.051 -3621.687 7885.226)" style="display:block"/><g style="display:block"><path fill="#E18E70" d="M1525.254 236.05c16.782 16.37 17.601 42.869 1.83 59.187-15.773 16.318-38.588 17.382-55.37 1.013-16.782-16.372-21.175-43.976-5.403-60.295 15.772-16.318 42.162-16.275 58.943.095z"/><path fill="#A70000" d="M1473.03 291.046c-1.413 3.496 1.406 10.926 15.273 15.218 13.867 4.292 17.612-4.712 18.437-6.75.825-2.04 3.08-10.96-3.76-13.077-5.362-1.66-12.88 2.789-19.537.728-6.657-2.06-8.998.385-10.412 3.881z"/><path fill="#FFF" d="M1502.98 286.438c-2.535-.785-5.554-.203-8.736.41-3.546.683-7.294 1.405-10.801.319-3.084-.954-5.24-.942-6.81-.306 1.523 2.094 4.553 4.344 9.23 6.062 8.501 3.074 16.384 1.47 21.109-1.316.097-2.644-1.859-4.509-3.991-5.169z"/><path fill="#9E4D31" d="M1483.921 272.11c.104.127-.898 6.098-2.396 7.912-1.479 1.793-4.917 1.1-6.29-.583-1.372-1.683-.89-3.357.87-4.605 1.427-1.327 7.712-2.852 7.816-2.725zm-12.204-18.805c-.761-.132-1.167-.89-.905-1.694.262-.804 1.094-1.35 1.855-1.218 5.454.946 8.333 4.202 9.659 7.868 1.305 3.606 1.115 7.592.536 10.205-.18.814-.963 1.436-1.749 1.39-.784-.046-1.274-.743-1.093-1.557.482-2.18.642-5.599-.455-8.63-1.076-2.972-3.354-5.585-7.848-6.364zm36.698 27.854c.438.677 1.386.897 2.118.493s.97-1.28.533-1.957c-3.328-5.149-8.036-7.357-12.55-7.974-4.443-.607-8.668.327-11.249 1.391-.779.322-1.128 1.166-.78 1.885.346.72 1.259 1.043 2.038.722 2.145-.884 5.776-1.688 9.54-1.174 3.694.504 7.545 2.275 10.35 6.614z"/><path fill="#3B3B3B" d="M1549.405 265.902c.19-2.013-1.759-3.76-3.566-3.79-1.572.23-3.527-.23-5.842-1.595-3.883-2.19-5.87-27.129-31.952-36.445-9.527-3.747-24.95-2.968-26.988 2.711-4.698 13.37-.116 38.164 29.195 48.354 26.85 9.638 36.336-1.518 39.153-9.235z"/></g></g><g clip-path="url(#bY)" style="display:block" transform="matrix(-1 0 0 1 1916 -23.5)"><g mask="url(#bZ)" style="display:block"><g clip-path="url(#ca)"><path stroke-linecap="round" stroke-linejoin="round" stroke="#3D3D3D" stroke-width="24" d="M541.75 368c5.75 8.75 22.071 22.16 22.071 22.16s9.503.38 25.471-.07" fill="none" transform="rotate(-10 4050.077 -4835.871)" style="display:block"/><path fill="#3D3D3D" d="M512.018 280.06c14.429 0 26.125 14.439 26.125 32.25s-11.352 31.792-25.781 31.792c-14.429 0-27.084-13.935-27.084-31.746s12.311-32.296 26.74-32.296zm43.423 7.966c27.555.062 53.428 14.596 49.161 35.812-4.533 22.538-19.548 27.499-42.525 28.246-51.772 1.682-68.584-64.197-6.636-64.058z" transform="rotate(-10 4056.122 -4887.942)" style="display:block"/><path fill="#DB8D74" d="M521.5 303c-16.5 11-42 12.5-66 13.5s-53.834 22.53-51 52c2.5 26 27.5 43 54.5 43.5 30.012.556 61-2.5 100.5-24s36.5-55.5 23.5-77-45-19-61.5-8z" transform="rotate(-10 4091.52 -4911.194)" style="display:block"/><g mask="url(#cb)" style="display:block"><path fill="#FFAADE" d="M1468.863 840.933c12.495-6.279-148.707-11.635-120.33 94.2 32.625 121.684 217.518-7.033 184.848 5.993-17.789 7.093-43.037 9.84-57.511 4.971a48.399 48.399 0 0 1-8.417-3.738 44.922 44.922 0 0 1-7.232-5.082c-7.56-6.52-14.39-16.458-18.886-28.206-9.198-24.035 9.239-58.946 27.528-68.138zm-25.218 11.164s-115.231-2.266-95.866 81.646c19.366 83.912 140.333 28.855 140.333 28.855s-61.548-.74-73.94-42.277c-12.173-40.795 29.473-68.224 29.473-68.224zm-33.848 27.4-3.34 6.2 11.424-1.754 2.955-6.346-11.04 1.9zm17.846-23.117s-96.335 12.742-76.822 77.335c19.512 64.593 117.831 33.45 117.831 33.45s-48.92-3.776-62.292-45.11c-11.591-35.836 21.283-65.675 21.283-65.675zm-14.255 61.3-9.32 3.73 3.178 8.257 8.853-4.396-2.711-7.592z"/><path fill="#A56641" d="M1443.645 852.097s-115.231-2.266-95.866 81.646c19.366 83.912 140.333 28.855 140.333 28.855s-61.548-.74-73.94-42.277c-12.173-40.795 29.473-68.224 29.473-68.224z"/><path fill="#2CE69B" d="m1409.797 879.498-3.34 6.2 11.424-1.755 2.955-6.346-11.04 1.9zm17.846-23.118s-96.335 12.742-76.822 77.335c19.512 64.593 117.831 33.45 117.831 33.45s-48.92-3.776-62.292-45.11c-11.591-35.836 21.283-65.675 21.283-65.675zm-14.255 61.3-9.32 3.73 3.178 8.257 8.853-4.396-2.711-7.592z"/></g><g mask="url(#cc)" style="display:block"><path fill="#3D3D3D" d="M1459.794 802.944c-17.88 4.422-21.207 26.09-19.311 40.214 1.897 14.136 6.172 29.375 22.174 35.692 16.795 6.63 34.48-7.095 32.736-37.25-1.258-21.76-17.72-43.078-35.599-38.656z"/></g><path fill="#3D3D3D" d="M557.75 265.5c16.983 0 30.75 13.711 30.75 30.625s-13.767 30.625-30.75 30.625S527 313.039 527 296.125s13.767-30.625 30.75-30.625z" transform="rotate(-10 4050.02 -4784.77)" style="display:block"/><path fill="#DB8D74" d="M512.021 320.5c6.639 0 12.02 5.382 12.02 12.021 0 6.639-5.381 12.02-12.02 12.02-6.639 0-12.021-5.381-12.021-12.02 0-6.639 5.382-12.021 12.021-12.021z" transform="rotate(-10 4432.435 -6340.013) scale(.5 .75)" style="display:block"/><g style="display:block"><path fill="#B82C2C" d="M1490.73 904.731a2.511 2.511 0 0 1 3.405-1.008l26.812 14.57a2.511 2.511 0 0 1 1.008 3.406l-.14.258c-4.685 8.624-15.474 11.814-24.097 7.13-8.624-4.687-11.815-15.476-7.13-24.098l.141-.258z"/><path fill="#FD5050" d="M1508.733 931.06a17.69 17.69 0 0 1-11.016-1.974 17.713 17.713 0 0 1-8.487-10.347 17.65 17.65 0 0 1 11.026 1.965 17.668 17.668 0 0 1 8.477 10.357z" opacity=".8"/></g><path stroke-linecap="round" stroke-linejoin="round" stroke="#3D3D3D" stroke-width="24" d="M536.818 374.269c8.057 4.734 26.951 16.388 26.951 16.388l26.417.185" fill="none" transform="rotate(-10 4050.077 -4835.871)" style="display:block"/><g style="display:block"><path fill="#FFF" d="M1530.698 900.895s13.448-6.935 18.02-8.018c1.847-8.122 5.557-24.31-3.736-23.41-6.418.62-10.024 9.595-10.753 13.571l-3.531 17.857zm-7.44-30.018-.9-.313c-5.748-1.242-11.756 1.104-13.166 6.672l-3.508 13.67c11.09 1.673 20.347 8.774 20.347 8.774l3.725-16.4c.97-3.829-1.287-11.029-6.499-12.403z"/><path fill="#3D3D3D" d="M1536.667 880.914c.363-2.834 2.088-5.1 4.418-4.835 2.33.265 3.362 2.735 3 5.569l-.23 1.786c-.362 2.834-2.105 4.93-4.31 4.695-2.205-.236-3.47-2.595-3.107-5.43l.229-1.785zm-26.635-2.023c.583-2.764 3.635-4.346 5.58-3.984 1.944.361 3.8 3.138 3.216 5.902l-.367 1.74c-.583 2.764-3.385 4.469-5.33 4.107-1.944-.362-4.05-3.261-3.467-6.025l.368-1.74z"/></g><path stroke-linecap="round" stroke-linejoin="round" stroke="#3D3D3D" stroke-width="12" d="M568.75 333.5s7.5-2 11.5 1m17.608 3.473s7.344 2.513 8.997 7.232" fill="none" transform="rotate(-10 4023.292 -4817.698)" style="display:block"/><path fill="#DB8D74" d="M571.295 372.25c4.029 0 7.295 3.217 7.295 7.186s-3.266 7.186-7.295 7.186-7.295-3.217-7.295-7.186 3.266-7.186 7.295-7.186z" transform="rotate(-10 3858.903 -4490.175) scale(1.1)" style="display:block"/></g></g><g style="display:block"><path fill="#DB8D74" d="M1426.493 950.161c-7.73 3.36-18.578 7.44-15.624 17.876 2.65 9.367 14.43 8.408 22.008 4.914 3.97 4.667 9.756 1.05 7.45-3.816-3.862-8.145-7.338-21.798-13.834-18.974z"/><path stroke-linecap="round" stroke-linejoin="round" stroke="#FFAADE" stroke-width="25" d="m1431.217 928.247-.26 27.77" fill="none"/></g></g></g></svg>